<?xml version="1.0" encoding="UTF-8"?>
<svg xmlns="http://www.w3.org/2000/svg" xmlns:xlink="http://www.w3.org/1999/xlink" viewBox="0 0 50 50" version="1.1" width="50px" height="50px">
<g id="surface1">
<path style=" " d="M 27 4 C 22.042969 4 18.449219 5.945313 16.5625 8.8125 C 14.789063 11.507813 14.617188 14.933594 15.8125 18.09375 C 15.371094 18.640625 15 19.351563 15.09375 20.46875 C 15.09375 20.488281 15.09375 20.511719 15.09375 20.53125 C 15.261719 21.75 15.628906 22.609375 16.09375 23.21875 C 16.320313 23.515625 16.65625 23.523438 16.9375 23.6875 C 17.105469 24.769531 17.425781 25.867188 17.875 26.75 C 18.128906 27.25 18.382813 27.691406 18.65625 28.0625 C 18.777344 28.226563 18.9375 28.332031 19.0625 28.46875 C 19.050781 29.324219 19 30.09375 18.9375 30.90625 L 18.90625 30.90625 C 18.730469 30.902344 18.558594 30.945313 18.40625 31.03125 C 18.40625 31.03125 16.707031 32.101563 15.3125 34.0625 C 9.128906 35.492188 5 40.457031 5 45 C 5 45.550781 5.449219 46 6 46 L 22.65625 46 C 22.847656 46.058594 23.058594 46.058594 23.25 46 L 26.8125 46 C 27.003906 46.058594 27.214844 46.058594 27.40625 46 L 44 46 C 44.550781 46 45 45.550781 45 45 C 45 39.523438 40.058594 35.109375 34.59375 34.15625 C 34.335938 33.8125 33.277344 32.433594 31.78125 31.34375 C 31.761719 31.320313 31.742188 31.300781 31.71875 31.28125 C 31.667969 31.246094 31.613281 31.222656 31.5625 31.1875 C 31.386719 31.046875 31.164063 30.96875 30.9375 30.96875 C 30.878906 30.125 30.855469 29.332031 30.84375 28.5 C 30.953125 28.367188 31.113281 28.277344 31.21875 28.125 C 31.484375 27.746094 31.757813 27.28125 32 26.78125 C 32.429688 25.898438 32.765625 24.859375 32.96875 23.84375 C 33.289063 23.679688 33.65625 23.667969 33.90625 23.34375 C 34.386719 22.714844 34.667969 21.820313 34.78125 20.59375 C 34.84375 19.867188 34.792969 19.210938 34.5625 18.65625 C 34.488281 18.480469 34.363281 18.316406 34.25 18.15625 C 34.574219 17.457031 34.78125 16.65625 34.875 15.75 C 35.011719 14.453125 34.957031 13.007813 34.59375 11.59375 C 34.230469 10.179688 33.554688 8.804688 32.46875 7.75 C 31.53125 6.839844 30.214844 6.28125 28.6875 6.125 L 27.90625 4.5625 C 27.738281 4.214844 27.386719 3.996094 27 4 Z M 26.40625 6.0625 L 27.09375 7.4375 C 27.261719 7.785156 27.613281 8.003906 28 8 C 29.390625 8 30.351563 8.464844 31.09375 9.1875 C 31.835938 9.910156 32.359375 10.945313 32.65625 12.09375 C 32.953125 13.242188 33.015625 14.472656 32.90625 15.53125 C 32.796875 16.589844 32.464844 17.46875 32.21875 17.78125 C 32.019531 18.035156 31.957031 18.375 32.050781 18.683594 C 32.144531 18.992188 32.378906 19.238281 32.6875 19.34375 C 32.683594 19.351563 32.667969 19.363281 32.6875 19.40625 C 32.757813 19.578125 32.851563 19.933594 32.8125 20.40625 C 32.722656 21.378906 32.480469 21.90625 32.3125 22.125 C 32.144531 22.34375 32.058594 22.3125 32.09375 22.3125 C 31.609375 22.320313 31.199219 22.675781 31.125 23.15625 C 30.996094 24.007813 30.601563 25.058594 30.1875 25.90625 C 29.980469 26.332031 29.777344 26.703125 29.59375 26.96875 C 29.410156 27.234375 29.214844 27.398438 29.3125 27.34375 C 29.011719 27.519531 28.820313 27.839844 28.8125 28.1875 C 28.8125 29.546875 28.910156 30.410156 29 31.8125 C 29 31.84375 29 31.875 29 31.90625 C 29 31.917969 29 31.925781 29 31.9375 C 29 31.957031 29 31.980469 29 32 C 29 32.101563 28.992188 32.207031 28.9375 32.3125 C 28.882813 32.421875 28.789063 32.523438 28.65625 32.65625 C 28.394531 32.914063 27.980469 33.160156 27.53125 33.375 C 27.128906 33.566406 26.746094 33.710938 26.4375 33.8125 C 26.386719 33.828125 26.328125 33.859375 26.28125 33.875 C 26.085938 33.933594 25.875 33.984375 25.8125 34 L 24.1875 34 C 24.019531 33.957031 23.273438 33.757813 22.46875 33.375 C 22.019531 33.160156 21.605469 32.914063 21.34375 32.65625 C 21.082031 32.398438 21 32.199219 21 32 C 21.007813 31.863281 20.984375 31.722656 20.9375 31.59375 C 21.023438 30.300781 21.09375 29.488281 21.09375 28.09375 C 21.097656 27.734375 20.90625 27.398438 20.59375 27.21875 C 20.667969 27.261719 20.472656 27.132813 20.28125 26.875 C 20.089844 26.617188 19.863281 26.257813 19.65625 25.84375 C 19.238281 25.019531 18.863281 23.960938 18.78125 23.09375 C 18.738281 22.613281 18.355469 22.230469 17.875 22.1875 C 17.910156 22.195313 17.886719 22.1875 17.8125 22.1875 C 17.773438 22.164063 17.71875 22.117188 17.65625 22.03125 C 17.480469 21.800781 17.230469 21.234375 17.09375 20.3125 C 17.09375 20.292969 17.09375 20.300781 17.09375 20.28125 C 17.089844 20.265625 17.097656 20.265625 17.09375 20.25 C 17.078125 19.492188 17.546875 19.070313 17.46875 19.125 C 17.859375 18.851563 18.003906 18.34375 17.8125 17.90625 C 16.585938 15.132813 16.761719 12.164063 18.25 9.90625 C 19.664063 7.757813 22.332031 6.214844 26.40625 6.0625 Z M 18.25 33.65625 C 18.363281 34.125 18.496094 34.609375 18.65625 35.1875 C 19.027344 36.53125 19.511719 38.089844 20 39.59375 C 20.605469 41.449219 21.125 42.925781 21.5 44 L 18.46875 44 L 15.4375 40.1875 L 17.375 38.8125 C 17.71875 38.578125 17.878906 38.152344 17.78125 37.75 L 17.0625 35.03125 C 17.476563 34.460938 17.894531 33.988281 18.25 33.65625 Z M 31.6875 33.90625 C 32.253906 34.457031 32.6875 34.984375 32.90625 35.25 L 32.21875 37.75 C 32.121094 38.152344 32.28125 38.578125 32.625 38.8125 L 34.5625 40.1875 L 31.53125 44 L 28.5 44 C 28.875 42.925781 29.394531 41.449219 30 39.59375 C 30.488281 38.089844 30.972656 36.53125 31.34375 35.1875 C 31.476563 34.703125 31.585938 34.3125 31.6875 33.90625 Z M 20.53125 34.5625 C 20.886719 34.816406 21.261719 35.015625 21.625 35.1875 C 22.164063 35.445313 22.683594 35.621094 23.09375 35.75 L 24 38 L 22.875 41.875 C 22.566406 40.976563 22.261719 40.054688 21.90625 38.96875 C 21.421875 37.484375 20.921875 35.949219 20.5625 34.65625 C 20.550781 34.621094 20.539063 34.597656 20.53125 34.5625 Z M 29.46875 34.5625 C 29.460938 34.597656 29.449219 34.621094 29.4375 34.65625 C 29.078125 35.949219 28.578125 37.484375 28.09375 38.96875 C 27.738281 40.054688 27.433594 40.976563 27.125 41.875 L 26 38 L 26.90625 35.75 C 27.316406 35.621094 27.835938 35.445313 28.375 35.1875 C 28.558594 35.101563 28.753906 35.011719 28.9375 34.90625 C 29.042969 34.847656 29.144531 34.785156 29.25 34.71875 C 29.324219 34.671875 29.394531 34.613281 29.46875 34.5625 Z M 15.25 36.0625 L 15.65625 37.59375 L 13.40625 39.1875 C 13.183594 39.347656 13.039063 39.59375 13.003906 39.867188 C 12.96875 40.136719 13.046875 40.410156 13.21875 40.625 L 15.90625 44 L 7.21875 44 C 7.769531 40.960938 10.675781 37.3125 15.25 36.0625 Z M 34.71875 36.15625 C 38.734375 37.046875 42.171875 40.3125 42.75 44 L 34.09375 44 L 36.78125 40.625 C 36.890625 40.5 36.964844 40.347656 37 40.1875 C 37.003906 40.144531 37.003906 40.105469 37 40.0625 C 37.023438 39.71875 36.871094 39.390625 36.59375 39.1875 L 34.34375 37.59375 Z "/>
</g>
</svg>
