<?xml version="1.0" encoding="UTF-8" standalone="no"?>
<svg
   xmlns:dc="http://purl.org/dc/elements/1.1/"
   xmlns:cc="http://creativecommons.org/ns#"
   xmlns:rdf="http://www.w3.org/1999/02/22-rdf-syntax-ns#"
   xmlns:svg="http://www.w3.org/2000/svg"
   xmlns="http://www.w3.org/2000/svg"
   viewBox="0 0 569.33331 212"
   height="212"
   width="569.33331"
   xml:space="preserve"
   id="svg2"
   version="1.1"><metadata
     id="metadata8"><rdf:RDF><cc:Work
         rdf:about=""><dc:format>image/svg+xml</dc:format><dc:type
           rdf:resource="http://purl.org/dc/dcmitype/StillImage" /></cc:Work></rdf:RDF></metadata><defs
     id="defs6" /><g
     transform="matrix(1.3333333,0,0,-1.3333333,0,212)"
     id="g10"><g
       transform="scale(0.1)"
       id="g12"><path
         id="path14"
         style="fill:#54a3d9;fill-opacity:1;fill-rule:evenodd;stroke:none"
         d="m 652.27,1375.04 c 1.32,0 2.652,0.51 3.98,1.48 0.352,0 0.859,0.16 1.52,0.51 0.32,0.35 0.82,0.67 1.492,1.02 3.668,2.3 4.488,5.66 2.5,10 -0.981,1.64 -2.66,2.81 -5,3.47 -3.012,0.36 -5.981,-0.82 -8.992,-3.47 -3.36,-3.01 -3.821,-6.53 -1.52,-10.51 1.68,-1.68 3.672,-2.5 6.02,-2.5" /><path
         id="path16"
         style="fill:#54a3d9;fill-opacity:1;fill-rule:evenodd;stroke:none"
         d="m 907.27,1136.02 c 0.66,-0.67 1.679,-1.14 3,-1.49 0.671,-0.35 1.64,-0.35 3.011,0 -6.011,-3.67 -12.191,-7.34 -18.511,-11.01 4.332,4.33 8.511,8.51 12.5,12.5 m -19.5,6.01 c 4.339,4.65 8.832,9.34 13.48,13.99 2.34,3 2.5,6.17 0.512,9.53 -3.012,2.97 -6.332,3.47 -10,1.48 -1.332,-1.01 -2.813,-1.99 -4.492,-3.01 15,13.36 19.64,20.86 13.98,22.5 -0.98,1.68 -2.301,2.86 -3.98,3.52 -2,0.31 -3.829,0 -5.508,-1.02 l -4.492,-1.99 c 8.671,6.68 17.5,13.52 26.48,20.51 1.02,-0.66 2.191,-1.33 3.52,-1.99 -0.36,-2.35 6.32,0.66 20,8.98 -6.68,-10.35 -8.52,-16.01 -5.508,-16.99 0.66,-0.66 1.519,-1.33 2.5,-1.99 -14.653,-17.35 -19.492,-26.53 -14.492,-27.5 1.011,-1.68 2.5,-2.7 4.492,-3.01 -1.992,-2.34 -3.832,-4.34 -5.512,-6.02 -4.34,-4.33 -7.5,-7.65 -9.488,-10 -2.66,2 -5.512,2.35 -8.481,1.02 l -13.011,-8.01 m 30.511,83.52 c -1.679,-2.7 -3.011,-4.69 -4.019,-6.02 -1.332,1.02 -2.813,1.49 -4.492,1.49 1.992,0.66 4.839,2.18 8.511,4.53 M 886.25,963.051 c 1.02,-1.371 2.191,-2.031 3.52,-2.031 0.351,-0.321 0.66,-0.469 1.011,-0.469 -1.011,-0.672 -1.832,-1.371 -2.5,-2.031 -0.66,-0.321 -1.172,-0.469 -1.519,-0.469 -0.981,-0.352 -1.992,-0.672 -3.012,-1.02 -1.988,-1.332 -3.16,-3.16 -3.48,-5.511 -4.68,-4.329 -9.02,-8.161 -13,-11.481 -3.008,0.313 -5.36,-0.16 -7,-1.519 -4.329,-2.661 -8.668,-5.321 -13,-7.969 6.679,5.969 11.011,10.308 13,12.969 5.98,4.679 11.64,8.859 17,12.5 3.32,2.691 6.32,5 8.98,7.031 m 10.512,-16.531 c -0.313,0 -0.672,-0.149 -0.981,-0.5 0.309,0 0.668,0.191 0.981,0.5 m 13.008,-26.989 c 0.66,-1.332 1.48,-2.34 2.5,-3.011 -25,-23 -33.68,-34.329 -26.02,-33.981 1.02,-1.988 2.699,-3.16 5,-3.519 -7.301,-6.989 -15,-13.981 -22.969,-20.969 -2.34,-2.699 -2.691,-5.672 -1.011,-9.031 0.351,-0.969 1.171,-1.829 2.5,-2.5 -8.321,-11.641 -12.661,-18.469 -13.008,-20.5 -1.332,-0.321 -2.5,-0.821 -3.481,-1.489 -9.019,-5.66 -13.871,-8.672 -14.531,-8.98 -0.66,0 -1.328,-0.199 -1.988,-0.512 -3.672,-2.66 -4.653,-6.019 -3.012,-10 0.352,0 0.352,0 0,0 -5.98,-3.008 -13.16,-6.68 -21.48,-11.019 1.011,2.351 0.82,4.691 -0.508,7 -1.641,2.339 -3.992,3.511 -6.992,3.511 16.011,13.668 21.32,21.68 16.011,23.989 -1.011,1.679 -2.691,2.851 -5,3.511 -0.66,0.348 -1.679,0.348 -3.011,0 15.32,14.34 20.32,21.989 15,23.008 -1.008,1.641 -2.5,2.813 -4.489,3.481 4.649,5 -11.519,-3.481 -48.511,-25.469 4.64,3.629 8.98,7.148 13,10.469 3.32,3 3.832,6.359 1.492,10 -2.66,3.359 -5.821,4.019 -9.492,2.031 l -23.52,-13.52 c 4.691,10.348 5.859,15.668 3.52,16.02 0,0.308 -0.161,0.469 -0.508,0.469 9.687,10.351 19.179,20.351 28.508,30 0,0 0,-0.161 0,-0.469 0.98,-1.68 2.5,-2.852 4.5,-3.52 0,-1.992 6.32,0.668 18.98,8.008 -12.301,-10.66 -16.129,-17.34 -11.48,-20 1.011,-1.988 2.652,-3.16 5,-3.519 0.351,-0.309 0.82,-0.5 1.48,-0.5 2.699,0 7.031,2.339 13.012,7.031 2.34,1.64 4.488,3.16 6.519,4.488 1.328,0 2.5,0.313 3.481,0.981 3.668,2.691 4.488,6.011 2.5,10 0,0 0,0.191 0,0.5 3.359,3.011 6.679,6.019 10,9.031 16.328,13.98 26.008,22.969 29.019,26.988 0.668,-0.348 1.129,-0.508 1.489,-0.508 1.32,0 2.5,0.348 3.511,1.02 -1.011,-2.031 -0.859,-4.18 0.469,-6.531 1.02,-1.641 2.5,-2.809 4.531,-3.469 -0.66,-3.012 7.809,1.328 25.469,12.969 3.012,1.679 6.371,3.671 10,6.011 l -5.98,-11.011 c -1.321,-2 -1.52,-4.141 -0.5,-6.489 M 743.281,757.539 c 0.668,-0.348 1.328,-0.66 1.989,-1.019 -0.661,-0.309 -1.321,-0.661 -1.989,-0.969 0,0.66 0,1.328 0,1.988 m -390.511,-400 c 22,15 53.32,34.34 93.992,58.012 40.66,23.629 80.859,46.64 120.508,68.98 20.351,11.68 39.179,22.348 56.48,31.989 -53.98,-33.668 -105.98,-65.309 -155.98,-95 -50,-29.641 -88.36,-50.969 -115,-63.981 m 93.011,-74.488 c -1.011,-2.699 -0.859,-4.852 0.469,-6.531 1.371,-1.989 3.012,-3.321 5,-3.981 0.66,-3.008 13.672,3.16 39.02,18.481 -6.008,-6.641 -7.5,-11.489 -4.489,-14.5 0.981,-1.641 2.5,-2.809 4.489,-3.469 -4.02,-4.34 10.511,3.32 43.48,22.969 -17.969,-14.34 -23.828,-22.309 -17.5,-23.989 1.02,-1.992 2.5,-3.16 4.531,-3.511 1.989,-0.668 3.828,-0.469 5.469,0.5 20.352,12 42.031,24.691 65,38.011 -3.98,-2.652 -7.5,-5.351 -10.469,-8.011 -6.011,-4.329 -10.66,-7.809 -14.019,-10.5 -6.641,-3.989 -8.832,-8.641 -6.492,-13.989 0.98,-1.679 2.5,-2.851 4.5,-3.511 -1.68,-3.641 8.82,2.031 31.48,17.031 4.34,2.648 9.34,5.82 15,9.488 -5,-4.019 -9.648,-7.66 -13.98,-11.019 -14.34,-10 -19.5,-17.141 -15.508,-21.481 0.66,-1.328 1.679,-2.34 3.008,-3.008 -10.36,-5.66 -24.649,-13.832 -43.008,-24.492 16.328,11.992 21.519,18.981 15.508,20.981 -1.02,2.031 -2.661,3.16 -5,3.511 -2.348,3.008 -18.52,-4.652 -48.52,-23.011 3.672,3.011 6.68,5.16 9.02,6.531 5.32,2.969 7.152,7.148 5.511,12.5 -1.011,1.988 -2.691,3.32 -5,3.98 0.668,5.668 -24.332,-8.32 -75,-41.992 -3.011,-1.68 -6.011,-3.519 -9.019,-5.508 9.019,7.348 17.5,14.34 25.508,21.02 3,2.969 3.32,6.328 1.011,10 -2.34,2.969 -5.511,3.629 -9.531,1.988 l -35,-20.508 c 21.02,16.68 28.16,25.508 21.52,26.489 -1.008,2.031 -2.5,3.16 -4.489,3.511 2.309,4.34 -10.351,-1.992 -38.011,-18.98 12.351,10.66 16.179,17.5 11.492,20.469 0,0.351 -0.313,0.66 -0.981,1.011 8.321,3.321 23.321,11.168 45,23.52 m -71.011,-32.031 5,7.031 c 0.66,-1.02 1.679,-1.68 3,-2.031 -2.34,-1.329 -5,-2.969 -8,-5 m -6.02,418.511 c -1.641,-1.992 -2.5,-3.672 -2.5,-5 l -14.488,-8.511 c 7.648,5.66 13.359,10.191 16.988,13.511 m -30.469,15 c -1.371,1.989 -3.011,3.321 -5,3.989 -1.679,1.011 -6.172,-0.469 -13.511,-4.5 3.671,3.011 6.992,5.671 10,8.011 11.32,7.348 15,12.848 11.011,16.489 -1.011,2.031 -2.5,3.16 -4.531,3.511 -0.309,1.328 -5,0 -13.98,-3.98 1.32,0.969 2.5,1.828 3.511,2.5 5,3.98 8.989,7.148 11.989,9.488 5.98,3.32 8.011,7.5 5.98,12.5 -0.98,1.992 -2.5,3.16 -4.488,3.481 -1.992,0.66 -3.832,0.5 -5.512,-0.469 l -48.48,-28.012 c 3.32,2.66 6.332,5 8.992,6.992 4.328,3.668 7.847,6.68 10.508,8.989 6.32,3.671 8.32,7.851 6.011,12.5 -1.371,2.031 -3.011,3.16 -5,3.511 -0.351,1.02 -3.511,0.348 -9.531,-1.992 l 26.52,19.492 c 3.32,3.008 3.992,6.328 2,10 -2.661,3.321 -6.02,4.18 -10,2.5 -19.649,-11.992 -41.02,-24.652 -63.989,-38.011 12.969,9.691 26.328,19.5 40,29.5 2.969,2.691 3.629,5.859 1.989,9.531 -1.008,1.64 -2.5,2.808 -4.489,3.469 -0.351,1.679 -5.66,-0.5 -16.011,-6.481 1.992,1.641 3.82,3.16 5.5,4.492 16.332,11.989 21.839,19.18 16.492,21.489 -1.332,2.031 -3.012,3.16 -5,3.511 1.988,4.649 -10.821,-1.992 -38.481,-20 9.649,8.008 18.828,15.16 27.5,21.489 2.969,2.691 3.629,5.859 1.989,9.531 -1.321,1.64 -2.848,2.808 -4.489,3.469 0,2.351 -6.832,-0.661 -20.511,-8.981 l 26.492,20.512 c 2.648,2.648 3.16,5.82 1.519,9.488 -1.011,1.641 -2.691,2.813 -5,3.481 0.309,2.031 -6.519,-0.321 -20.511,-7 3.011,2 5.511,3.832 7.5,5.511 8.32,5.348 11.179,10.16 8.48,14.489 -1.328,2 -2.969,3.171 -5,3.519 -0.309,0.66 -2.66,0.16 -6.988,-1.519 17.34,13.359 22.847,21.171 16.519,23.511 -1.011,1.68 -2.5,2.66 -4.531,3.008 7.699,6.992 -14.488,-4.84 -66.48,-35.508 12.652,8.989 25.152,18.008 37.5,26.989 3.32,2.66 4.179,5.859 2.5,9.5 -1.329,2.031 -3.008,3.359 -5,4.019 0,1.641 -6.02,-0.348 -18.008,-6.019 5,3.679 8.828,6.531 11.519,8.519 6.989,4.34 9.34,8.832 6.989,13.481 -3.668,5 -8.668,5 -15,0 l -38,-22 c 11.992,9.031 24.179,17.859 36.48,26.531 3.359,2.648 4.02,5.82 2.031,9.488 -2.691,4.34 -6.172,5.16 -10.511,2.5 -1.68,-1.019 -3.36,-1.84 -5,-2.5 -3.36,-2.34 -8.161,-5.16 -14.489,-8.519 -0.66,-0.309 -1.519,-0.821 -2.5,-1.481 15.668,13.672 20.821,21.332 15.469,23.012 -3.32,5 -8.98,4.328 -16.988,-2.031 -8.672,-5 -16.492,-9.5 -23.481,-13.481 8.629,7.34 15.981,13.481 21.989,18.481 2.66,2.691 3.171,5.859 1.492,9.531 -1.332,1.64 -2.813,2.808 -4.492,3.469 3.98,5.359 -13.008,-3.668 -51.02,-26.989 6.68,5.668 13.359,11.328 20,16.989 2.699,2.66 3.16,5.671 1.52,9.031 -1.008,1.988 -2.5,3.16 -4.489,3.469 -0.66,0.359 -1.519,0.511 -2.5,0.511 0.981,0.668 1.84,1.168 2.5,1.489 17.969,12.339 24.809,21.171 20.469,26.519 -0.98,1.641 -2.5,2.66 -4.488,3.012 -1.992,0.66 -3.832,0.469 -5.512,-0.512 -6.988,-4.019 -14.34,-8.359 -21.988,-13.008 21.008,16.68 28.16,25.508 21.519,26.489 -1.011,2.031 -2.5,3.16 -4.531,3.511 0.66,2.348 -6.328,-0.66 -20.98,-8.98 l 20,16.989 c 3.32,2.66 3.832,5.82 1.492,9.49 -2.66,3.32 -5.821,3.99 -9.492,1.99 -1.68,-0.97 -3.321,-1.99 -5,-3 l 34.492,26.01 c 3.008,2.35 3.668,5.51 1.988,9.49 -1.328,1.68 -2.969,2.66 -5,3.01 3.359,5 -11.328,-2.5 -43.98,-22.5 3,2.35 5.66,4.49 8,6.49 13.992,9.02 18.992,15.86 15,20.5 -1.008,1.68 -2.5,2.86 -4.489,3.52 1.989,3.98 -10.511,-2.5 -37.5,-19.49 10.309,7.97 20.16,15.47 29.489,22.5 2.66,2.65 3.171,5.82 1.492,9.49 -0.981,1.99 -2.66,3.16 -5,3.48 -0.313,0.35 -1.332,0.5 -3.012,0.5 12.031,9.69 17.852,15.67 17.5,18.01 14.02,8.67 42.34,26.02 85,51.99 67.031,41.33 139.531,85 217.5,131.02 -46.641,-29.69 -119.801,-76.02 -219.488,-139.02 l -8.012,-5.47 c -0.66,-0.35 -1.328,-0.86 -1.988,-1.53 l -0.981,-0.5 c -3.672,-2 -4.531,-5.32 -2.5,-10 2.309,-3.32 5.668,-4.14 10,-2.5 l 158.989,92.03 c -48.68,-30.67 -94.18,-58.87 -136.489,-84.53 -3.672,-2.66 -4.531,-5.98 -2.5,-10 2.66,-3.32 5.981,-4.14 10,-2.5 l 46.489,27.03 c -32.661,-22.03 -44.34,-33.36 -35,-34.03 1.32,-1.99 2.851,-3.16 4.492,-3.47 2.34,-0.67 4.328,-0.35 6.008,0.97 10.98,6.68 22.82,14.03 35.511,22 -6.371,-3.99 -12.191,-7.82 -17.5,-11.49 -29.019,-17.65 -39.84,-28.67 -32.5,-33.01 0.981,-1.64 2.5,-2.81 4.489,-3.47 2,-0.35 3.832,0 5.511,0.97 21.989,13.36 45.981,27.86 71.989,43.52 -36.321,-25.66 -49.329,-38.52 -39.02,-38.52 1.02,-1.99 2.5,-3.16 4.531,-3.47 -2.34,-3.36 7.66,1.48 30,14.49 -3.672,-2.34 -7.031,-4.49 -10,-6.52 -9.019,-6.64 -16.172,-11.84 -21.519,-15.47 -10,-5.67 -13.321,-10.86 -10,-15.51 1.008,-1.99 2.5,-3.16 4.488,-3.52 2.031,-0.66 3.871,-0.31 5.512,1.02 20.66,12.34 43.16,25.82 67.5,40.51 -18.992,-12.7 -35,-23.36 -48.012,-32.03 -10,-6.64 -17.969,-12 -23.98,-15.98 -11.02,-5.66 -14.848,-11.02 -11.489,-16.02 1.328,-1.64 2.969,-2.81 5,-3.47 -3.011,-3.67 9.141,2.15 36.489,17.5 -9.34,-9.03 -12,-14.69 -8.008,-17.03 1.328,-1.64 3.008,-2.82 5,-3.48 1.679,-0.35 3.508,0 5.508,0.98 28,17.69 55.152,34.33 81.48,50 -36.641,-25.32 -50,-38.64 -40,-40 1.371,-1.64 2.852,-2.82 4.531,-3.48 -4.019,-5.66 13.481,3.48 52.5,27.5 -2.34,-1.99 -4.531,-3.67 -6.519,-5 -13.012,-9.02 -17.66,-15.66 -13.992,-20 0.98,-1.99 2.5,-3.16 4.5,-3.52 0.66,-1.99 5.66,0.16 15,6.53 1.011,0.66 1.992,1.13 3,1.48 l -26.52,-21.01 c -2.66,-2.66 -3.16,-5.82 -1.48,-9.5 1.011,-1.64 2.5,-2.81 4.492,-3.47 0.66,-0.35 1.828,-0.35 3.508,0 -20,-13.671 -27.18,-22.499 -21.52,-26.53 1.371,-1.641 2.852,-2.809 4.531,-3.469 -0.351,-2.699 8.168,0.969 25.469,10.969 -19.34,-14.641 -25.82,-22.649 -19.488,-23.981 1.008,-1.68 2.5,-2.848 4.488,-3.519 -3.32,-3.981 9.531,2.351 38.52,19.031 l -45,-31.02 c -3.68,-2.652 -4.5,-5.82 -2.5,-9.492 2.652,-3.668 6.011,-4.488 10,-2.5 21.32,12.34 43.98,25.512 68,39.492 -35.348,-22.652 -68.508,-43.832 -99.489,-63.511 -3.672,-2.661 -4.531,-5.981 -2.5,-10 2.66,-3.641 5.981,-4.5 10,-2.5 1.641,1.011 3.321,2.031 5,3 -19.332,-14.641 -25.66,-23 -19.019,-25 1.008,-1.641 2.5,-2.809 4.488,-3.469 -0.309,-1.68 5.66,0.82 18.012,7.5 12.34,6.988 45.859,26.64 100.508,58.98 1.992,1.02 3.98,2.149 6.011,3.52 -60,-37.031 -107.34,-65.86 -142.031,-86.531 -13.32,-8 -23.828,-14.329 -31.48,-18.981 -3.68,-2.34 -6.489,-4.18 -8.52,-5.508 -0.66,-0.351 -1.48,-0.82 -2.5,-1.48 -0.309,0 -0.469,0 -0.469,0 v -0.512 c -3.359,-1.988 -4.179,-5.16 -2.5,-9.488 0.981,-2.031 2.5,-3.172 4.489,-3.52 2,-0.66 3.832,-0.351 5.511,1.02 45.981,27.648 95,56.828 146.989,87.5 52,30.969 97.152,57.5 135.511,79.488 -37.691,-25 -83.011,-53.519 -136.011,-85.508 -52.661,-31.992 -101.84,-61.332 -147.5,-88.011 -3.68,-2.649 -4.5,-5.969 -2.5,-10 1.011,-1.641 2.5,-2.809 4.492,-3.469 1.328,-1.02 6.519,0.469 15.508,4.488 -12,-10 -15.668,-16.019 -11.02,-18.008 1.02,-1.679 2.5,-2.851 4.531,-3.511 -0.66,-1.641 5.16,0.66 17.5,7.031 -13.359,-11.68 -17.5,-18.52 -12.5,-20.512 1.328,-1.988 3.168,-3.359 5.469,-4.019 3.359,-0.981 10.199,0.859 20.512,5.5 -8.992,-5.309 -17.5,-10.5 -25.512,-15.5 -3.629,-2.309 -4.648,-5.668 -2.969,-10 1.328,-2 3.321,-3.321 5.981,-3.989 0.66,0 1.679,0 3.008,0 -8.68,-8.98 -11.02,-14.652 -7,-16.992 0.98,-1.68 2.5,-2.848 4.5,-3.519 1.992,-0.309 3.82,0 5.5,1.019 33.32,19.652 68.992,40.66 107,63.012 -16.329,-10.352 -31.02,-19.852 -43.989,-28.52 -13.359,-8.672 -24.019,-15.66 -32.031,-21.011 -13.629,-7.661 -18.32,-13.641 -13.98,-17.969 1.011,-1.68 2.5,-2.852 4.492,-3.52 -7.66,-7.652 15.859,5.348 70.508,38.989 -1.68,-0.981 -3.168,-2 -4.5,-2.969 -25.348,-15.672 -46.52,-28.871 -63.508,-39.531 -8.321,-5.668 -14.653,-9.809 -18.992,-12.5 -4.329,-2.661 -7.34,-5.469 -9.02,-8.481 -7.301,-4.019 -22.66,-13.359 -45.98,-28.008 9.339,7.348 18.011,14.34 25.98,21.02 3.012,2.648 3.672,5.66 2.031,8.98 m 38.989,-7.5 c -1.329,-1.011 -2.661,-1.992 -3.989,-3.011 0.668,0.671 1.129,1.332 1.489,2 1.011,0.351 1.832,0.66 2.5,1.011 m 185,894.489 c -1.329,0.36 -2.661,1.33 -3.989,3.01 0.981,-1.68 2.309,-2.65 3.989,-3.01 m -198.52,-283 c 15,8.67 28.871,16.83 41.52,24.53 -13.668,-8.01 -27.5,-16.17 -41.52,-24.53 m -200.469,-84.5 c 0.668,-0.31 1.328,-0.66 1.989,-0.97 -0.661,0.31 -1.321,0.66 -1.989,0.97 m 90,102.5 c -1.011,1.68 -2.34,2.66 -4.019,3.01 1.679,-0.35 3.008,-1.33 4.019,-3.01 m 323.481,34.5 c -0.313,0 -0.512,0 -0.512,0 -0.98,2.03 -2.301,3.36 -3.98,4.02 4.64,2.66 9.332,5.31 13.98,8.01 -5,-5.67 -8.16,-9.69 -9.488,-12.03 m 49.019,175 c -1.011,1.01 -2.34,1.68 -4.019,2.03 1.328,0 2.648,-0.67 4.019,-2.03 m 365.469,-367 c -0.98,1.68 -2.5,2.66 -4.488,3.01 -1.641,0.67 -3.481,0.51 -5.512,-0.51 -3.32,-1.99 -6.641,-3.98 -10,-5.97 1.68,2.3 1.68,5 0,7.97 -2.301,3.36 -5.469,4.18 -9.488,2.5 l -10.512,-5.98 c 12.031,13.01 15.859,19.84 11.52,20.51 -2.649,3.63 -6.008,4.65 -10,2.97 -0.348,-0.32 -0.86,-0.67 -1.52,-0.98 13.012,13.32 17.191,20.31 12.5,20.98 -0.98,2.03 -2.5,3.16 -4.488,3.51 -1.332,0.67 -3.012,0.51 -5,-0.51 10.347,11.68 13.359,18.17 9.019,19.5 -1.011,1.68 -2.5,2.85 -4.531,3.51 -0.309,0 -0.66,0 -0.98,0 2.66,4.34 5.511,8.67 8.48,13.01 1.371,1.99 1.52,4.14 0.512,6.48 -0.672,2.35 -2.352,3.83 -5,4.5 0,2.03 -5.821,-0.67 -17.5,-7.97 9.019,10.97 11.679,17.15 8.008,18.47 -1.329,2 -2.86,3.17 -4.5,3.52 -0.661,0.31 -1.168,0.51 -1.52,0.51 14.02,14.33 18.52,21.99 13.52,22.97 -1.329,1.68 -2.86,2.85 -4.5,3.51 -2.34,0.35 -4.329,0 -6.008,-1.01 -3.992,-2.31 -8.012,-4.81 -11.992,-7.5 1.011,1.01 1.832,1.83 2.5,2.5 13.98,12.34 18.511,19.53 13.511,21.52 -1.011,1.64 -2.34,2.66 -4.019,3.01 -1.992,0.66 -3.992,0.47 -5.981,-0.51 -2.031,-1.33 -4.332,-2.85 -7.031,-4.49 14.691,13.63 19.34,21.13 14.02,22.5 -1.008,1.64 -2.5,2.81 -4.489,3.47 -1.679,0.36 -3.511,0 -5.511,-0.97 l -13.508,-8.01 c 10.66,12.66 14.019,19.34 10,20 -0.981,1.64 -2.5,2.81 -4.492,3.48 -0.668,2.03 -6.18,-0.47 -16.489,-7.5 -0.351,0 -0.511,0 -0.511,0 2,9.33 2.152,14.18 0.511,14.53 -1.011,1.64 -2.5,2.81 -4.531,3.47 -0.98,1.02 -4.488,-0.31 -10.469,-3.98 10.309,11.33 13.321,17.81 8.989,19.49 -1.02,1.68 -2.5,2.66 -4.5,3.01 -1.989,0.66 -4.02,0.31 -6.008,-1.02 -1.641,-0.97 -3.321,-2.14 -5,-3.47 0.347,1.99 0.66,3.63 1.008,5 2.351,5.97 2.66,9.65 0.98,10.97 -0.98,1.68 -2.5,2.86 -4.488,3.52 -0.672,1.64 -5.821,-0.66 -15.512,-6.99 6.68,10.66 8.52,16.48 5.512,17.5 -0.981,1.64 -2.5,2.81 -4.492,3.47 0,2 -6.18,-0.82 -18.52,-8.47 l 10.512,11.99 c 1.988,2.66 2.34,5.51 1.008,8.48 -1.321,2.03 -3,3.16 -5,3.51 -0.661,1.68 -4.84,0.16 -12.5,-4.49 5,9.65 6.179,14.84 3.48,15.51 -1.988,5.97 -8.629,5 -20,-3.01 l -1.48,-1.02 c -0.36,2.35 -1.02,5.36 -2,9.03 0,1.33 -0.348,2.5 -1.008,3.47 -0.981,2 -2.66,3.17 -5,3.52 -1.992,0.66 -4.34,0.16 -6.992,-1.52 -2,8.67 -3.008,12.5 -3.008,11.52 -0.981,1.99 -2.5,3.16 -4.492,3.48 -0.36,2.03 -6.18,-0.47 -17.5,-7.5 0.66,9.33 0.5,13.86 -0.508,13.51 0,0.35 -0.16,0.67 -0.512,1.02 15,19.33 20,29.33 15,30 -0.98,1.64 -2.5,2.65 -4.488,2.97 2.34,4.02 -9.653,-1.84 -35.981,-17.5 7.66,10.66 9.809,16.36 6.489,17.03 -1.02,1.99 -2.5,3.16 -4.5,3.47 -1.68,0.67 -3.508,0.51 -5.5,-0.5 l -18.989,-10.98 c 1.328,3.01 2.66,6.17 3.989,9.49 1.011,1.99 0.82,4.18 -0.508,6.49 -0.672,1.68 -1.84,2.85 -3.481,3.51 -0.66,1.02 -1.371,2.15 -2.031,3.52 -3.629,7.65 -5.16,10.82 -4.488,9.49 -0.981,1.64 -2.5,2.81 -4.492,3.48 -1.02,0 -1.84,0 -2.5,0 -0.36,3.36 -0.508,6.83 -0.508,10.5 0,1.33 -0.313,2.5 -0.981,3.52 -2.691,5.31 -8.359,4.84 -17.031,-1.52 l -0.98,-0.47 c 10.32,11.99 13.48,18.47 9.5,19.49 -1.02,1.64 -2.5,2.81 -4.5,3.48 -1.68,0.35 -3.508,0 -5.5,-0.98 l -46.02,-26.52 c 4.691,10 5.859,15.35 3.52,16.01 -1.329,1.99 -3.008,3.17 -5,3.52 -0.668,3.63 -13.008,-2.5 -37,-18.52 -4.329,-3.01 -7.649,-5.15 -10,-6.48 -0.348,-0.35 -0.661,-0.51 -1.008,-0.51 -3.672,-2.66 -4.653,-6.02 -3.012,-10 1.371,-1.99 3.012,-3.16 5,-3.52 0.66,-1.99 6.371,0.67 17.031,8.01 3.989,2.66 8.629,5.67 13.989,8.99 -4.649,-10.67 -5.821,-16.49 -3.52,-17.5 2.699,-3.32 6.02,-4.14 10,-2.5 l 27.031,15.5 c -2.34,-2.65 -4.332,-4.84 -6.011,-6.48 -7,-6.68 -8.989,-11.52 -6.02,-14.49 2.699,-3.67 6.02,-4.53 10,-2.5 10.66,5.97 22.852,12.97 36.52,20.97 0,-9.33 0.32,-13.82 0.98,-13.47 1.02,-1.68 2.5,-2.7 4.531,-3.01 1.328,-1.02 3.481,-0.66 6.489,0.98 0.351,-0.67 0.66,-1.33 1.011,-2 1.328,-2.65 2.5,-4.84 3.481,-6.48 -9.653,-21.68 -12.66,-31.84 -8.992,-30.51 2.66,-3.67 5.98,-4.49 10,-2.5 l 8.992,5 c -2.66,-3.67 -5.313,-7.34 -8.012,-11.01 -1.988,-2.97 -1.84,-5.98 0.512,-8.99 3.008,-2.65 6.168,-3.16 9.488,-1.48 10.352,6.64 21.172,13.32 32.5,20 -0.309,-1.02 -0.82,-1.68 -1.48,-2.03 -8.68,-10.67 -11.18,-16.64 -7.5,-17.97 1.011,-2.03 2.5,-3.17 4.492,-3.52 1.328,-0.66 3.16,-0.51 5.508,0.51 -0.36,-3.01 -0.668,-6.17 -1.02,-9.49 -0.309,-3.01 0.859,-5.35 3.52,-7.03 2.339,-1.33 4.839,-1.33 7.5,0 5.66,3.67 11.011,7.03 16.011,10 0.309,-1.64 0.668,-3.17 0.981,-4.5 1.328,-5.97 1.988,-8.82 1.988,-8.47 1.371,-1.68 3.012,-2.85 5,-3.52 2.699,-0.35 5,0.35 7.031,1.99 1.641,-8.98 2.66,-13 2.969,-11.99 1.02,-1.99 2.5,-3.16 4.531,-3.51 1.328,-0.32 2.5,-0.32 3.481,0 -1.992,-3.64 -4.141,-7.15 -6.492,-10.47 -1.68,-3.36 -1.168,-6.37 1.492,-9.03 1.328,-1.32 2.847,-2.14 4.488,-2.5 l -12.969,-15 c -2.34,-2.34 -2.691,-5 -1.011,-8 1.011,-2 2.5,-3.17 4.492,-3.48 -1.992,-4.02 9.328,1.64 34.019,16.99 -6.011,-10 -7.5,-15.51 -4.531,-16.48 1.02,-2.03 2.5,-3.17 4.531,-3.52 0,-2.65 7.309,0.67 21.989,10 -3,-9.65 -3.508,-14.49 -1.52,-14.49 0.66,-1.33 1.52,-2.34 2.5,-3.01 -3.32,-3.67 -6.328,-6.83 -8.98,-9.49 -11.68,-11.68 -15.161,-18.36 -10.508,-20 1.008,-1.68 2.5,-2.85 4.488,-3.52 -1.988,-3.98 9.84,2 35.512,18.01 -0.672,-3.01 -1.332,-6.01 -1.992,-8.98 -0.668,-2.03 -0.508,-3.87 0.5,-5.51 1.332,-1.68 2.82,-2.85 4.5,-3.52 0.351,0 0.5,0 0.5,0 -4.68,-5.31 -9.02,-10.5 -13,-15.5 -2.348,-3.32 -2.348,-6.49 0,-9.5 2.339,-2.34 4.839,-3.16 7.5,-2.5 -15.668,-13.67 -20.668,-21.32 -15,-23 1.011,-1.64 2.5,-2.82 4.492,-3.48 0.347,-1.02 4.179,0.31 11.519,3.98 -15.66,-13.67 -20.859,-21.17 -15.511,-22.5 0.98,-1.64 2.5,-2.81 4.5,-3.47 -0.668,-2.35 7.339,1.33 23.98,10.97 -3.629,-3.98 -7.5,-8 -11.48,-11.99 -2.348,-2.65 -2.661,-5.51 -1.02,-8.51 1.02,-2 2.5,-3.17 4.531,-3.48 0.668,-0.35 1.328,-0.51 1.989,-0.51 l -27.5,-16.01 c 8.011,11.01 10.32,17.03 7,18 -1.329,2 -3.008,3.17 -5,3.52 -2,0.98 -4.848,0.16 -8.52,-2.5 5.66,9.34 7.191,14.84 4.531,16.48 -1.011,2 -2.691,3.36 -5,4.03 0,2.3 -7.031,-0.86 -21.011,-9.53 0,0.35 -0.161,0.66 -0.508,1.01 -2.66,7.35 -3.832,10.51 -3.481,9.49 -0.66,1.33 -1.519,2.19 -2.5,2.5 0.309,0.67 0.469,1.18 0.469,1.53 7.031,12.65 9.02,19.65 6.02,20.97 -0.668,1.68 -2,2.86 -3.989,3.52 -2.031,0.31 -3.871,0 -5.511,-1.02 -10.348,-5.66 -17.34,-9.64 -21.008,-11.99 l 3.008,-6.48 -2,-7.03 c 0.98,-0.98 3.48,-0.47 7.5,1.52 -5,-9.02 -6.321,-14.34 -4.02,-16.02 1.02,-1.64 2.5,-2.81 4.531,-3.47 2.309,-0.67 4.809,0 7.5,1.99 0,-0.35 0,-0.51 0,-0.51 2.969,-8.67 4.489,-12.34 4.489,-11.01 0.98,-2 2.5,-3.17 4.5,-3.48 1.992,-0.35 3.82,0 5.5,0.98 -5.661,-9.34 -7.18,-15 -4.489,-17 0.981,-1.64 2.66,-2.81 5,-3.47 1.328,-0.35 2.66,-0.35 3.989,0 -7,-10.35 -8.989,-16.02 -6.02,-17.03 0.66,-0.67 1.371,-1.33 2.031,-2 -29.332,-24.64 -39.691,-36.99 -31.011,-36.99 1.011,-1.68 2.5,-2.85 4.492,-3.51 1.988,-0.32 3.828,0 5.508,1.01 l 11.48,6.49 c -1.988,-2 -3.98,-3.64 -5.98,-5 -4.02,-3.64 -7.34,-6.64 -10,-8.99 -5.661,-3.32 -7.34,-7.5 -5,-12.5 0.98,-1.68 2.5,-2.85 4.5,-3.51 -1.329,-2.66 7.851,1.52 27.5,12.5 -8.008,-9.34 -10.161,-14.81 -6.489,-16.49 0.981,-1.68 2.5,-2.85 4.489,-3.51 1.64,-0.32 3.48,0 5.511,1.01 l 2.969,1.49 -5.469,-5.47 c -11.011,-9.34 -14.332,-15.2 -10,-17.5 0.981,-1.68 2.5,-2.7 4.489,-3.01 -1.008,-2.34 5.82,0.66 20.511,8.98 -2.031,-1.64 -3.871,-3.16 -5.511,-4.49 -11.321,-8.32 -15.348,-14.84 -11.989,-19.49 0.981,-1.68 2.5,-2.85 4.489,-3.52 0.32,0 0.671,0 0.98,0 -8.98,-6.32 -17.148,-11.83 -24.488,-16.48 -21.332,-13.01 -29.34,-21.99 -23.992,-26.99 0.98,-2.03 2.5,-3.17 4.5,-3.52 0.66,-0.35 1.992,-0.35 3.98,0 -20.309,-15.35 -27.148,-23.979 -20.469,-26.01 1.328,-1.641 2.969,-2.821 5,-3.481 -2.34,-3.359 9.809,1.992 36.489,15.981 l -10.508,-7.5 c -10.313,-5.981 -13.672,-11.141 -10,-15.469 0.66,-1.02 1.679,-1.84 3.008,-2.5 -21.68,-20 -28.989,-30.352 -22,-31.02 0.98,-1.679 2.351,-2.652 3.992,-3.011 -25,-20.661 -33.672,-31.321 -25.981,-31.989 0.981,-1.679 2.5,-2.652 4.489,-3.011 1.64,-1.321 4.851,-0.309 9.5,3.011 -6.02,-4.332 -11.329,-8.16 -16.02,-11.48 -17.66,-11.02 -23.98,-18.672 -18.98,-23.012 0.66,-0.348 1.171,-0.66 1.48,-1.019 -0.66,-0.969 -1.328,-1.641 -1.988,-1.989 -11.332,-11.992 -18.672,-20 -21.992,-23.98 -3.989,-4.692 -4.848,-7.852 -2.5,-9.531 1.011,-2 2.5,-3.168 4.492,-3.481 1.328,-0.348 2.5,-0.348 3.508,0 -1.321,-3.359 -2.848,-6.68 -4.489,-10 -1.371,-3.359 -0.859,-6.168 1.489,-8.519 -35,-28.668 -47.5,-42.649 -37.5,-41.989 1.011,-1.679 2.5,-2.851 4.492,-3.511 0.66,0 1.328,0 1.988,0 -0.309,-2.309 13.359,5.351 41.02,23 3,2 3.98,4.691 3,8.011 2.66,-1.332 5.16,-1.332 7.5,0 6.332,3.668 13.171,7.66 20.511,11.989 -16.011,-14.641 -21.371,-22.5 -16.011,-23.469 1.011,-1.68 2.5,-2.699 4.492,-3.012 0.347,-0.348 0.66,-0.508 1.008,-0.508 -19.68,-16.011 -28.161,-24.652 -25.5,-26.011 -1.02,0.351 -2,0.66 -3.008,1.011 -1.641,0.668 -4.492,0.348 -8.481,-1.011 1.641,1.011 3.168,2.031 4.489,3 18.992,11.019 25.82,18.832 20.511,23.519 -1.011,1.641 -2.5,2.813 -4.531,3.481 6.02,5.66 -11.84,-4.34 -53.48,-30 -62.34,-38.321 -144.329,-87.661 -246.008,-147.969 2.34,1.64 4.687,3.16 6.988,4.488 45.352,28.672 86.02,54.492 122.031,77.5 17.969,11.332 31.489,20.16 40.469,26.481 16.371,9.339 22.191,16.179 17.5,20.511 -2.66,3.668 -5.98,4.649 -10,3.008 L 523.281,688.051 c 35,21.988 67.809,42.808 98.481,62.5 3.668,2.648 4.488,5.82 2.5,9.488 -0.981,1.992 -2.66,3.32 -5,3.981 -0.672,0.359 -1.492,0.511 -2.5,0.511 27.648,18.668 37.187,28.668 28.508,30 -1.008,1.989 -2.649,3.321 -5,3.989 0.98,3.359 -10.149,-0.668 -33.508,-12 -23.321,-11.321 -81.332,-44.641 -173.992,-100 -16.008,-9.329 -31.68,-18.668 -46.989,-28 1.989,2.031 2.969,4.019 2.969,6.011 53.672,31.989 107.34,63.828 161.02,95.508 53.98,31.332 86.992,49.652 98.98,55 1.02,0 2.191,0.313 3.52,0.981 3.671,2.691 4.492,6.011 2.5,10 -1.02,1.679 -2.5,2.851 -4.5,3.511 -0.348,1.328 -5,-0.152 -14.02,-4.492 17.699,11.992 23.52,19.652 17.5,23.012 -0.98,1.64 -2.5,2.808 -4.488,3.469 -0.672,1.679 -6.992,-0.661 -18.992,-6.989 12,9.649 15.511,15.668 10.511,18.008 -1.011,1.992 -2.5,3.32 -4.531,3.981 -1.328,0.359 -3.828,-0.149 -7.5,-1.481 0.66,0.66 1.371,1.172 2.031,1.481 14.34,9.339 25.469,16.679 33.481,22 14.328,8.359 19.328,14.531 15,18.511 -1.332,1.989 -2.813,3.168 -4.492,3.52 0.351,1.988 -6.329,-0.512 -20,-7.5 -13.989,-7.031 -50.161,-27.5 -108.52,-61.531 29.02,17.66 52.191,31.679 69.531,42 10.668,6.359 18.989,11.359 25,15 11.328,5.66 15.16,10.859 11.489,15.5 -0.668,1.332 -1.489,2.351 -2.5,3.011 36.32,26.02 48.98,39.34 38,40 -1.008,1.989 -2.5,3.321 -4.489,3.989 -1.371,2.031 -10,-1.489 -26.011,-10.469 -15.668,-9.031 -50.821,-30.672 -105.508,-65 -50.313,-32.031 -98.832,-61.84 -145.512,-89.531 36.02,24.019 81.52,53 136.52,87.031 55.32,33.98 106.839,65.148 154.5,93.469 3.32,2.66 4.179,6.019 2.5,10 -2.661,3.679 -6.02,4.5 -10,2.5 -59.34,-34.641 -121.18,-70.661 -185.508,-108 54.328,34.019 105.347,65.66 153.008,95 3.32,2.339 4.179,5.5 2.5,9.531 -0.668,1.328 -1.68,2.301 -3.008,2.969 30.66,22.69 41.328,34.84 31.988,36.52 -1.328,1.64 -2.969,2.81 -5,3.48 0,1.36 -5.469,-0.47 -16.48,-5.47 8.32,8.32 10.5,13.47 6.48,15.47 -0.98,2.03 -2.5,3.16 -4.488,3.51 0,1.68 -5,-0.15 -15,-5.51 -10.313,-5.66 -37.66,-21.32 -81.992,-46.989 28.671,17.659 62.339,38.319 101.011,61.989 l 13.481,8.52 c 7.34,3.01 9.84,7.34 7.5,13.01 -0.981,1.99 -2.66,3.16 -5,3.47 -0.672,1.68 -5.981,0.36 -15.981,-3.98 11.641,9.34 15.309,15 10.981,16.99 -1.332,1.68 -2.813,2.85 -4.492,3.52 0,1.33 -4.649,-0.51 -13.989,-5.51 -9.691,-5 -35,-19.49 -76.011,-43.52 l 46.48,32 c 3.359,2.34 4.02,5.5 2.031,9.53 -3.011,3.98 -6.519,4.8 -10.511,2.5 v -0.51 c -1.321,-0.35 -2.5,-0.86 -3.508,-1.52 -3.012,-1.64 -6.84,-3.99 -11.492,-7 -10.348,-5.97 -23.508,-13.67 -39.489,-23 -13.011,-7.66 -27.34,-15.98 -43.011,-25 7.351,5 13.679,9.33 18.992,13 8.359,6.33 15.148,11.18 20.508,14.5 10,6.01 13.16,11.17 9.492,15.5 -0.981,1.68 -2.5,2.86 -4.492,3.52 1.32,3.32 -8.829,-1.52 -30.508,-14.49 3.008,1.99 5.859,3.98 8.508,5.97 17.66,10.67 24.14,18.36 19.5,23.01 -1.329,1.68 -3.008,2.85 -5,3.52 -1.68,0.31 -3.52,0 -5.508,-1.02 -23.321,-14.33 -46.172,-28.16 -68.481,-41.48 l 33.481,26.99 c 3.008,2.66 3.508,5.82 1.519,9.49 -1.011,1.68 -2.5,2.85 -4.531,3.52 -0.98,0.66 -3.32,0.31 -6.988,-1.02 14.019,9.65 19.019,16.84 15,21.49 -0.981,2.03 -2.5,3.16 -4.492,3.51 1.32,3.67 -9.34,-1.33 -32,-15 12,8.32 16.179,15.16 12.5,20.51 -1.008,1.64 -2.5,2.81 -4.489,3.48 0.981,2.34 -7.691,-0.98 -26.011,-10 13,8.36 25.82,16.68 38.511,25 2.66,1.68 3.828,4.02 3.481,7.03 -0.672,3.32 -2.5,5.31 -5.512,5.97 -0.66,0.67 -2.5,0.36 -5.469,-0.97 -0.351,0 -1.371,-0.51 -3.011,-1.53 -4.329,-2.34 -14.329,-8.16 -30,-17.5 -1.321,-0.66 -2.5,-1.32 -3.508,-1.99 19.019,14.65 25.148,23.01 18.508,25 -1.008,1.68 -2.5,2.85 -4.489,3.52 0.309,1.33 -4.691,-0.35 -15,-5 13.989,9.33 27.149,18.32 39.489,26.99 3.32,2.66 4.14,5.98 2.5,10 -1.321,1.64 -2.848,2.66 -4.489,3.01 3.321,4.65 -11.172,-2.35 -43.511,-21.02 1.32,0.67 2.652,1.49 3.98,2.5 11.371,7.66 20.512,13.83 27.5,18.52 13.012,7.3 17.34,12.97 13.012,16.99 -0.981,1.99 -2.5,3.32 -4.492,3.98 -0.668,0.36 -2.661,0 -6.02,-0.97 13.672,10 18.16,17.15 13.52,21.48 -1.329,1.68 -3.008,2.85 -5,3.52 0.351,1.64 -5.821,-0.35 -18.52,-6.02 14.02,8.99 27.191,17.5 39.531,25.51 3.321,3.01 4.141,6.33 2.5,10 -1.371,1.99 -3.011,3.16 -5,3.48 30.668,22.03 41.328,33.51 31.989,34.53 -2.34,3.63 -5.661,4.49 -10,2.5 l -31.989,-18.52 c 5.668,3.99 11.129,7.5 16.489,10.51 13.32,8.98 23.671,15.98 31.011,20.98 6.641,4.33 10.981,7.69 12.969,10 0,0 0.199,-0.16 0.512,-0.47 0.66,-1.68 1.988,-2.85 4.019,-3.52 -0.66,-2.65 7.969,1.68 25.981,13.01 1.328,0.66 2.648,1.33 4.019,1.99 -4.691,-10 -5.859,-15.35 -3.511,-16.01 1.011,-1.64 2.5,-2.82 4.492,-3.48 1.988,-0.35 3.828,0 5.508,0.98 l 23.511,13.51 c -6.011,-11.33 -7.691,-16.99 -5,-16.99 0.981,-1.99 2.5,-3.16 4.489,-3.52 1.332,-2.65 10.511,1.68 27.5,13.01 -9.68,-11.33 -12.649,-17.5 -9.02,-18.51 1.371,-1.64 3.012,-2.82 5,-3.48 0.66,-2.66 9.02,1.48 25,12.5 2.699,1.64 5.66,3.48 9.02,5.51 -1.321,-3.36 -2.649,-6.84 -4.02,-10.51 -1.328,-3.01 -0.66,-5.66 2.031,-8.01 1.328,-1.33 2.809,-1.99 4.489,-1.99 1.332,0.31 2.66,0.66 3.992,0.98 17.34,10.66 29.019,17.5 35,20.5 0.347,0.36 0.66,0.51 1.008,0.51 3.679,2.66 4.652,6.02 3.011,10 -1.371,1.68 -2.851,2.85 -4.531,3.52 0.66,2.65 -7.5,-1.02 -24.488,-11.02 4.019,9.65 4.84,14.65 2.5,15 -0.981,1.68 -2.5,2.85 -4.492,3.52 -2,1.33 -6.84,-0.35 -14.5,-5 9.652,10.66 12.5,16.64 8.48,17.97 -0.98,1.68 -2.5,2.85 -4.488,3.51 -0.313,3.01 -11.492,-2.85 -33.481,-17.5 -2.691,-1.68 -5.511,-3.51 -8.511,-5.51 1.992,4.03 3.98,7.66 6.011,11.02 1.328,3.01 0.821,5.82 -1.519,8.48 -2.66,2.34 -5.672,2.69 -8.992,1.01 l -26.52,-15 c 5,10 6.371,15.35 4.02,16.02 -1.321,1.64 -2.848,2.81 -4.489,3.47 -0.66,1.68 -5.191,0 -13.511,-5 8.671,9.69 11.32,15.67 8,18.01 -1.008,1.99 -2.5,3.17 -4.489,3.52 -0.351,1.33 -4.179,0 -11.519,-4.03 l 23.008,19.03 c 3,2.65 3.671,5.82 1.992,9.49 -1.332,1.64 -3.012,2.81 -5,3.48 -0.313,3 -11.172,-2.31 -32.5,-15.98 5.347,4.65 10.859,9.49 16.519,14.49 2.66,3.01 2.969,6.17 0.981,9.49 -2.66,3.36 -5.821,4.03 -9.492,2 -5,-2.66 -19.34,-10.82 -43.008,-24.5 -1.332,2 -3.172,3.36 -5.512,4.03 2.34,5.31 -16.48,-1.84 -56.48,-21.53 -40,-19.33 -137.661,-77.34 -293.008,-173.98 6.328,5 7.847,8.67 4.488,10.98 -0.98,2.03 -2.5,3.16 -4.488,3.51 -0.313,0.35 -0.981,0.51 -1.992,0.51 15,8.01 59.332,34.14 133,78.48 39.652,23.67 77.66,46.36 113.992,68 36.679,21.68 59.488,34.34 68.508,38.01 1.332,0 2.5,0.35 3.48,1.02 3.672,2.65 4.691,5.97 3.012,10 -0.981,1.33 -2.352,2.3 -3.992,2.97 13.679,9.02 24.339,16.36 32,22.03 1.011,-1.37 4.839,0 11.48,3.98 -2.969,-3.67 -5.98,-7.34 -8.98,-11.01 -2,-2.66 -2.149,-5.32 -0.508,-7.97 1.008,-2.03 2.5,-3.17 4.488,-3.52 0.66,-0.35 1.371,-0.51 2.031,-0.51 0.668,-0.66 7.809,3.17 21.489,11.53 3.32,1.99 5.351,3.32 6.011,3.98 l -3.011,6.49 1.492,6.52 c 13.359,15.66 17.648,23.67 13.008,23.98 -1.02,1.68 -2.5,2.86 -4.5,3.52 -0.661,1.64 -5.661,-0.51 -15,-6.52 -2.34,-1.33 -5.149,-2.97 -8.508,-5 -0.981,1.68 -2.352,2.69 -3.992,3 -1.989,0.67 -3.821,0.36 -5.5,-0.97 -46.02,-28.36 -96.329,-59.03 -151.02,-92.03 -54.34,-32.66 -101.129,-60.16 -140.469,-82.5 43.989,33.67 60,49.84 47.969,48.51 -0.98,1.68 -2.5,2.66 -4.488,3.01 0.347,2.34 -6.172,-0.66 -19.492,-9.02 -21.02,-12.66 -37.5,-22.15 -49.5,-28.48 -0.661,-0.35 -1.321,-0.66 -1.989,-1.02 -3.359,-2.65 -4.179,-5.97 -2.5,-10 0.981,-1.64 2.5,-2.81 4.489,-3.47 0.32,0 0.511,0 0.511,0 -14.332,-11.02 -27.691,-21.17 -40,-30.51 -2.691,-2.66 -3.16,-5.86 -1.519,-9.49 1.008,-2.03 2.648,-3.17 5,-3.52 0,-1.99 6.328,-0.15 19.019,5.51 -0.351,-0.66 -0.859,-1.17 -1.519,-1.52 -14.653,-8.64 -26.172,-15.47 -34.492,-20.47 -3.989,-2.7 -7.149,-4.69 -9.5,-6.02 -5.348,-1.99 -7.18,-6.01 -5.5,-11.99 1.011,-1.68 2.5,-2.85 4.492,-3.52 0.66,0 1.328,0 1.988,0 0,-0.31 0.199,-0.31 0.512,0 -2.66,-1.64 -5.672,-3.47 -8.992,-5.5 0.32,1.68 0,3.16 -1.008,4.53 -0.981,1.99 -2.5,3.16 -4.492,3.47 -0.36,1.68 -5.161,0 -14.5,-5 9.652,10.36 12.5,16.33 8.48,18.01 -1.328,1.68 -2.809,2.85 -4.488,3.52 -0.981,1.99 -6.84,-0.67 -17.5,-8.01 -7.66,-5 -14.141,-9.02 -19.492,-11.99 -1.02,0 -2,-0.35 -3.008,-1.02 -3.672,-2.34 -4.492,-5.66 -2.5,-10 1.008,-1.68 2.5,-2.65 4.488,-3.01 -7.969,-7.65 -16.129,-15.15 -24.4883,-22.5 -3.0117,-3 -3.3203,-6.17 -0.9804,-9.49 1.3281,-1.99 3.1679,-3.01 5.4687,-3.01 1.68,-0.31 3.012,0 4.02,1.02 0.32,0 0.511,0 0.511,0 -0.351,-1.68 0,-3.52 0.981,-5.51 2.648,-3.67 6.008,-4.49 10,-2.5 3.668,2.35 7.847,4.85 12.5,7.5 l -16.992,-13.51 c -3.008,-2.66 -5.508,-4.81 -7.5,-6.49 -4.34,-3.32 -5.1606,-6.68 -2.5,-10 1.011,-1.68 2.5,-2.85 4.492,-3.51 1.008,-0.67 3.16,0 6.519,2.03 2.309,1.33 6.489,3.83 12.5,7.5 7.969,5.31 15.821,10.31 23.481,15 0,0 -0.16,-0.2 -0.512,-0.51 -25,-16.33 -34.34,-26.99 -27.969,-31.99 0.981,-2.03 2.66,-3.36 5,-4.03 3.989,-1.64 15.469,2.86 34.489,13.52 -6.321,-4.34 -9.68,-6.52 -10,-6.52 -3.36,-2.66 -4.18,-5.98 -2.5,-10 3.011,-3.64 6.492,-4.5 10.511,-2.5 2.66,1.68 25,15.5 66.989,41.52 95.671,59.34 180.32,110 253.992,151.99 -76.641,-48.32 -156.332,-97.34 -238.992,-146.99 -33,-20 -59.84,-36.33 -80.5,-49.02 -10,-5.98 -17.86,-10.82 -23.52,-14.5 -6.641,-3.98 -10.469,-7.5 -11.48,-10.5 -3.68,-2 -7.86,-4.5 -12.5,-7.5 13.32,10.35 18,17.69 13.98,22.03 -0.98,1.64 -2.5,2.81 -4.488,3.47 -1.992,0.36 -3.832,0 -5.512,-0.97 -5.309,-3.36 -10.98,-6.68 -16.9883,-10 16.6793,13.63 21.9883,21.48 16.0083,23.47 -1.321,1.68 -2.848,2.86 -4.489,3.52 5,5 -11.8318,-3.83 -50.5115,-26.52 4.6524,4.33 9.5,8.86 14.5,13.51 2.3399,3.01 2.6524,6.02 1.0118,8.99 -1.0118,2.03 -2.6915,3.36 -5,4.02 -1.0118,0.66 -4.1797,-0.16 -9.5313,-2.5 7.3398,8.98 9.3398,14.34 6.0195,15.98 -0.6679,1.36 -1.4882,2.18 -2.5,2.5 21.3203,20.35 28.5118,30.66 21.4805,31.01 -4.6484,4.34 -8.8281,4.65 -12.5,1.02 l -6.9883,-4.03 c -8.0117,-4.64 -19.1406,-11.17 -33.4804,-19.49 0.9804,1.02 1.8398,1.99 2.5,3.01 8.6289,9.34 11.1289,15 7.5,16.99 0,0.67 -0.1915,1.17 -0.5118,1.49 7,7.03 13.1719,13 18.4805,18 l 1.0195,-0.97 h 0.5 l -1.0078,1.48 c 0.3477,0.35 0.5078,0.51 0.5078,0.51 3.6719,3.32 6.4805,6.17 8.5118,8.48 4.6484,3.36 6.1289,7.34 4.4882,12.03 -1.3203,1.64 -2.8476,2.81 -4.4882,3.47 0,2.35 -7.3399,-0.97 -22.0313,-10 3.0117,9.34 3.5195,14.18 1.5195,14.5 -0.6601,1.36 -1.6797,2.34 -3,3 2.6524,2.66 5.1524,5.16 7.5,7.5 15.6602,14.34 20.8203,22.19 15.5,23.52 -1.3203,1.64 -2.8476,2.81 -4.4882,3.48 -0.6602,0 -1.1719,0 -1.5196,0 6.3281,10.35 9.0196,16.01 8.0078,17.03 3.6719,5.66 7.3399,11.33 11.0118,16.99 8.9882,12.34 11.6406,18.83 7.9687,19.49 -0.9805,1.68 -2.5,2.85 -4.4883,3.52 -1.6406,0.31 -3.3203,0.15 -5,-0.51 1.3281,3.32 2.5,6.48 3.5078,9.49 0.3203,1.33 0.3203,2.85 0,4.49 3.6797,4.34 7.3516,8.52 10.9805,12.5 18.359,19.03 24.531,28.68 18.52,29.03 -0.668,0.97 -1.68,1.83 -3.008,2.5 22.34,18.63 31.328,28.98 26.988,30.97 l 46.02,43.52 c 1.679,1.64 2.339,3.83 1.992,6.48 9.687,6.68 20.859,14.5 33.508,23.52 0.32,-0.35 0.511,-0.66 0.511,-1.02 1.641,-1.99 3.828,-3.16 6.489,-3.47 1.32,0.31 2.5,0.82 3.511,1.48 37.309,22.35 74.649,44.49 111.989,66.49 -5.348,-5 -9.84,-8.99 -13.508,-12 -3.321,-3 -5.981,-5.31 -8.012,-6.99 -4.648,-3.32 -6.129,-7.34 -4.488,-11.99 1.008,-1.99 2.5,-3.16 4.488,-3.52 2.031,-0.66 4.02,-0.31 6.02,1.02 36.679,23.32 68,42.5 93.98,57.5 l -11.988,-16.52 c -1.641,-2.66 -1.84,-5.32 -0.512,-7.97 0.66,-1.37 1.84,-2.35 3.52,-3.01 -7.661,-4.34 -21.84,-12.66 -42.5,-25 -3.68,-3.01 -4.5,-6.33 -2.5,-10 2.652,-3.67 6.011,-4.49 10,-2.5 10.351,5.98 20.82,12.15 31.48,18.48 -6.328,-11.33 -8.16,-17.15 -5.469,-17.5 1.328,-2 2.809,-3.17 4.489,-3.48 0.98,-0.35 1.64,-0.51 2,-0.51 0.66,-1.01 8.82,3.32 24.492,13.01 3.008,1.99 4.84,3.16 5.508,3.48 l -3.52,6.52 2.031,6.99 c -1.371,1.33 -4.84,0 -10.511,-3.98 2,3.63 3.832,7.15 5.511,10.47 1.328,2.34 1.328,4.68 0,7.03 -0.66,0.97 -1.679,1.83 -3.011,2.5 5.32,2.97 12.66,7.15 22,12.5 l -8.989,-9.53 c -2.34,-2.66 -2.691,-5.47 -1.011,-8.48 1.011,-1.99 2.652,-3.16 5,-3.52 -0.668,-3.67 10.82,2.19 34.492,17.5 4.687,3.36 9.488,6.53 14.488,9.5 -2.969,-10.32 -3.48,-15.47 -1.48,-15.47 1.011,-2.03 2.5,-3.17 4.492,-3.52 1.988,-0.66 3.828,-0.51 5.508,0.51 31.011,18.67 51.48,30.66 61.48,35.98 0.66,0.35 1.371,0.66 2.031,1.01 3.629,2.66 4.649,6.02 2.969,10 -1.328,1.68 -2.809,2.85 -4.488,3.52 5,5.66 -13.172,-4.03 -54.492,-29.03 1.011,3.36 1.832,6.53 2.5,9.5 0.66,2.03 0.5,3.86 -0.508,5.5 -0.981,1.68 -2.66,2.86 -5,3.52 -0.981,1.99 -7.5,-0.86 -19.492,-8.52 l 10.5,11.02 c 2.351,3.32 2.351,6.64 0,10 -2.649,2.66 -5.86,3.16 -9.489,1.48 -18.359,-11.64 -35.511,-22.14 -51.519,-31.48 l 10.508,13.98 c 1.679,2.35 1.679,4.85 0,7.5 -1.02,2 -2.5,3.36 -4.5,4.03 4.652,5.97 -15.348,-4.03 -60,-30 6.332,7.3 7.82,11.99 4.5,13.98 -1.02,1.68 -2.5,2.85 -4.5,3.52 8.992,8.32 -18.668,-6.17 -83,-43.52 11.32,7.35 21.832,14.49 31.48,21.49 3.672,2.69 4.531,5.86 2.5,9.53 -2.66,3.63 -5.98,4.49 -10,2.5 -6.328,-3.67 -29.141,-16.84 -68.48,-39.53 -39.68,-22.66 -62.649,-35.98 -69.02,-40 l 3.52,-5.98 -2,-6.99 c 0.32,-0.35 0.671,-0.51 0.98,-0.51 -37.969,-26.02 -51.48,-39.02 -40.469,-39.02 0,-0.32 0,-0.47 0,-0.47 l -37.5,-35.51 c -2.031,-1.99 -2.5,-4.49 -1.519,-7.5 -6.332,-5.66 -12.5003,-11.17 -18.4807,-16.52 -27.6915,-22.31 -37.6915,-34.14 -30,-35.47 0.9804,-1.68 2.5,-2.85 4.4882,-3.52 0.9805,-0.66 3.0118,-0.15 5.9805,1.49 -11.3281,-12.31 -14.8008,-19.14 -10.4687,-20.47 0.6679,-1.02 1.6406,-1.84 2.9687,-2.5 -5.3086,-14.34 -6.8398,-21.17 -4.4883,-20.51 1.0078,-1.68 2.1875,-2.85 3.5078,-3.52 -9.0195,-13.32 -12.5,-20.31 -10.5,-20.97 -4.3398,-7.35 -9.6484,-16.17 -16.0195,-26.53 -1.6406,-2.65 -1.6406,-5.31 0,-8 -25,-23.99 -33.98047,-36.33 -26.9883,-37 4.3281,-4.64 9.3281,-4.64 15,0 1.3281,0.67 3.0078,1.68 5,3.01 -0.9804,-3.32 -1.9922,-6.48 -3.0117,-9.49 -0.6602,-1.99 -0.4687,-4.02 0.5117,-6.02 0.6602,-1.32 1.6797,-2.34 3.0078,-3 -18.9882,-18.32 -25.35934,-27.82 -18.9882,-28.48 0.6679,-1.02 1.3281,-1.84 1.9882,-2.5 -13.66794,-16.68 -18.16013,-25.51 -13.50778,-26.52 1.32812,-2 2.84766,-3.17 4.48828,-3.48 -0.98047,-3.01 8.1602,1.17 27.5,12.5 -4.6484,-4.02 -9.6484,-8.52 -15,-13.52 -3.9805,-3.32 -4.8008,-6.83 -2.5,-10.5 2.6992,-3.32 6.0195,-3.99 10,-2 3.3594,2 6.6797,4.03 10,6.02 -7.3008,-10.35 -9.3398,-16.33 -5.9805,-18.01 0.3203,-1.01 1.1797,-1.83 2.5,-2.5 -21.0078,-20 -28.16012,-30.15 -21.5195,-30.51 1.0195,-1.64 2.5,-2.81 4.5313,-3.47 -1.0118,-2.7 6.9882,1.13 23.9882,11.48 -1.6797,-1.33 -3.3203,-2.5 -5,-3.51 -6.6797,-5.32 -12.1484,-9.65 -16.4882,-12.97 -8.0118,-5 -10.66021,-9.85 -8.0118,-14.53 0.9805,-1.64 2.5,-2.82 4.5,-3.48 -0.3593,-1.68 5.3516,0.51 16.9922,6.48 -3.9922,-3 -7.5,-5.66 -10.5117,-8 -11.98828,-7.66 -16.12891,-13.83 -12.5,-18.48 1.01953,-1.68 2.5,-2.85 4.5313,-3.52 -5.35161,-5.66 12.9687,4.18 55,29.5 -0.3516,-0.32 -0.6602,-0.47 -1.0118,-0.47 -8.3203,-6.37 -15.1601,-11.53 -20.5078,-15.51 -10,-6.33 -13.3203,-11.68 -10,-16.02 1.0078,-1.99 2.5,-3.16 4.4883,-3.47 2.0313,-0.35 4.0195,0 6.0195,0.97 2.3399,1.68 4.8399,3.36 7.5,5 -3.6797,-3 -7.1484,-5.82 -10.5078,-8.469 -5.3125,-4.031 -9.4922,-7.192 -12.5,-9.531 -5.9804,-3.989 -8.0117,-8.481 -5.9804,-13.481 1.3281,-1.68 2.9687,-2.848 5,-3.519 1.6406,-1.321 7.5,0.671 17.5,6.019 -8.6719,-6.988 -11.5196,-12.5 -8.5118,-16.519 1.3203,-2 2.8516,-3.168 4.4922,-3.481 0,-2.66 7.3399,0.313 21.9883,8.981 L 40.2695,947.031 c -3,-2.652 -3.6679,-5.82 -1.9882,-9.492 1.3281,-1.68 2.8085,-2.848 4.4882,-3.519 -2.3398,-3.321 9.3399,2.191 35,16.531 l -17.5,-14.531 c -2.6484,-2.661 -3,-5.821 -1.0078,-9.5 2.6485,-3.321 5.8594,-3.981 9.4883,-1.989 3.0117,1.68 6.3711,3.52 10,5.508 -12.3008,-9.34 -23.6289,-17.848 -33.9805,-25.508 -3.3203,-2.652 -3.9882,-5.82 -2,-9.492 0.9805,-1.68 2.5,-2.848 4.5,-3.519 -1.0195,-1.989 6.3203,1.179 21.9922,9.5 -0.3125,0 -0.6719,-0.161 -0.9804,-0.469 -15,-10 -20.6602,-17.5 -17.0313,-22.5 1.3711,-2.031 3.0117,-3.172 5,-3.52 -0.9805,-3.32 8.5195,1.02 28.5195,13.008 -12.3476,-11.68 -16.1797,-18.16 -11.4882,-19.488 0.9804,-1.68 2.5,-2.852 4.4882,-3.52 -3.3593,-5 11.4922,2.66 44.5005,23.008 L 106.762,874.02 c -5.313,-3 -6.9925,-6.989 -5,-11.989 1.008,-1.679 2.5,-2.851 4.488,-3.511 0,-1.641 5.66,0.66 17.031,7.031 -11.371,-8.672 -22.191,-16.68 -32.4997,-24.031 -3.3594,-2.649 -4.0196,-5.969 -2.0313,-10 2.6992,-3.321 5.8594,-3.981 9.5313,-1.989 8.3207,4.649 17.1487,9.649 26.4887,15 -14.649,-13.32 -19.34,-20.66 -13.989,-21.992 0.981,-1.68 2.5,-2.848 4.489,-3.519 2,-0.309 3.832,0 5.511,1.019 6.989,3.981 14.809,8.481 23.481,13.481 -10.981,-8.321 -21.332,-16.141 -30.981,-23.481 -3.011,-3.008 -3.511,-6.328 -1.519,-10 3.008,-3.359 6.328,-4.019 10,-1.988 3.668,2.301 7.5,4.648 11.519,6.988 -20.351,-16.328 -27.191,-25.16 -20.511,-26.519 0.98,-1.641 2.5,-2.661 4.5,-2.969 -5.36,-5.672 11.832,3.32 51.48,26.988 -36.988,-24.34 -50.16,-36.68 -39.488,-36.988 1.008,-1.68 2.5,-2.699 4.488,-3.012 1.68,-0.66 3.52,-0.508 5.512,0.512 14.328,8.629 30,18.16 46.988,28.469 -22.301,-17.649 -30,-27.141 -22.969,-28.469 1.328,-1.68 2.969,-2.852 5,-3.52 1.989,-0.351 3.828,0 5.469,1.02 7.699,5.308 15.512,10.308 23.52,15 l -34.5,-27.031 c -3,-2.661 -3.668,-5.821 -1.989,-9.5 1.328,-1.641 2.969,-2.809 5,-3.469 0.309,-1.68 5.668,0.308 15.981,5.969 -16.992,-13.321 -22.5,-20.821 -16.492,-22.5 0.98,-1.641 2.66,-2.809 5,-3.469 1.332,-2.699 12,1.988 32,13.98 -5,-3.672 -9.649,-7.34 -13.989,-11.011 -2.691,-2.661 -3.16,-5.821 -1.519,-9.5 1.008,-1.641 2.5,-2.649 4.488,-3 0.352,-0.321 0.859,-0.469 1.52,-0.469 -21.321,-17.352 -28.508,-26.531 -21.52,-27.5 1.02,-2.031 2.5,-3.172 4.531,-3.52 -2.031,-3.011 7.809,1.68 29.489,13.989 l -28.508,-21.489 c -3.321,-3.011 -3.992,-6.332 -1.992,-10 2.652,-3.32 6.011,-3.98 10,-1.992 18,11.332 35.82,22.34 53.511,33.012 -12.031,-9.692 -23.16,-18.871 -33.511,-27.5 -3.008,-2.699 -3.52,-5.86 -1.489,-9.531 2.66,-3.321 5.821,-4.141 9.489,-2.5 l 30.511,18 c -2.34,-1.989 -4.691,-3.821 -7.031,-5.5 -5.98,-4.649 -10.82,-8.481 -14.488,-11.489 -7.66,-4.332 -10.16,-8.98 -7.5,-13.98 1.008,-1.68 2.5,-2.852 4.488,-3.52 2.031,-0.351 3.871,0 5.512,1.02 8.008,5 16.328,10.148 25,15.469 -0.672,-0.668 -1.332,-1.141 -1.992,-1.489 -8.008,-6.332 -14.34,-11.48 -18.989,-15.511 -8.672,-5.661 -11.679,-10.821 -9.019,-15.5 1.008,-2 2.648,-3.168 5,-3.481 1.679,-1.68 7.847,0.66 18.508,6.992 -4.02,-3.672 -7.34,-6.48 -10,-8.511 -6.008,-3.641 -8,-7.969 -6.008,-12.969 1.328,-2.031 3.008,-3.172 5,-3.52 1.679,-2.34 10.347,1.02 26.008,10 -6.321,-4.652 -10.86,-8.16 -13.508,-10.511 l -0.512,-0.5 c -4.648,-4.34 -5.469,-7.661 -2.5,-10 1.02,-1.641 2.34,-2.661 4.02,-2.969 2,-0.672 3.992,-0.512 5.98,0.469 l 19.02,11.011 c -2.34,-1.679 -4.68,-3.32 -6.989,-5 -19.332,-12.34 -26.519,-20.66 -21.519,-25 1.328,-1.992 3.008,-3.16 5,-3.511 1.679,-0.668 3.508,-0.321 5.508,1.011 46.011,28.668 96.32,59.489 151.011,92.5 55,33.008 104.141,61.989 147.5,86.989 C 485.43,698.051 421.09,658.199 357.77,619.531 c -30,-18.32 -54.489,-33.32 -73.508,-45 -8.992,-6.011 -16.172,-10.66 -21.492,-13.98 -9.329,-4.34 -12.649,-9.34 -10,-15 0.98,-1.68 2.5,-2.699 4.5,-3.012 1.992,-0.66 3.98,-0.508 6.011,0.512 46.641,29.328 97.5,60.66 152.5,93.98 -41.371,-26.679 -74.691,-48.16 -100,-64.492 -16.679,-10.66 -30,-19.34 -40,-26.019 -4.691,-3 -8.359,-5.5 -11.011,-7.5 -5.668,-2.34 -7.661,-6.481 -6.02,-12.5 1.02,-1.641 2.5,-2.649 4.531,-3 1.989,-0.668 3.828,-0.469 5.469,0.5 l 96.02,55.511 c -8.321,-5.351 -16.02,-10.152 -23.008,-14.492 -15.313,-10 -26.84,-17.5 -34.492,-22.5 -13.989,-8.008 -18.829,-14.18 -14.5,-18.519 0.98,-1.989 2.66,-3.321 5,-3.981 1.332,-1.68 9.851,1.172 25.511,8.481 -10.351,-6.329 -20.351,-12.5 -30,-18.481 -3.672,-2.66 -4.531,-6.019 -2.5,-10 0.981,-1.68 2.5,-2.848 4.489,-3.519 2.66,-1.641 12.5,2.191 29.5,11.531 -18.008,-11.371 -35.508,-22.192 -52.5,-32.5 -3.321,-2.352 -4.18,-5.512 -2.5,-9.531 1.011,-2 2.5,-3.321 4.492,-3.989 0.347,-3.011 14.019,3.321 41.008,18.989 27,15.351 88.679,52.5 185,111.519 62.351,38.012 125.32,76.172 188.992,114.492 64.019,38.321 111.828,65.508 143.508,81.489 -11.989,-8.989 -29.02,-20.668 -51.008,-35 -47.66,-26.329 -143.672,-83.168 -288.012,-170.469 -2.969,-2.031 -6.129,-4.031 -9.488,-6.02 -15.313,-8.672 -29.653,-16.832 -43.012,-24.492 -64.34,-36.68 -103.629,-59.34 -117.969,-68.008 -14.019,-8.98 -20,-13.832 -18.011,-14.492 -0.348,-1.988 0,-3.828 0.98,-5.508 1.02,-1.992 2.5,-3.16 4.531,-3.511 -1.011,-2.969 7.969,0.859 26.989,11.519 19.339,10.981 70.82,41.84 154.5,92.5 136.679,78.012 235.66,136.641 296.992,175.981 1.679,1.011 3.359,2.031 5,3 C 743.281,710.699 675.941,669.18 592.27,619.531 508.949,569.879 438.59,528.359 381.25,495.039 c -26.328,-15.348 -47.148,-27.5 -62.5,-36.519 -7.301,-4.649 -13.16,-8.168 -17.5,-10.469 -7.969,-3.36 -10.82,-7.852 -8.48,-13.52 1.332,-2.34 3.32,-3.832 5.98,-4.492 4.02,-1.019 10.859,0.512 20.512,4.492 -0.672,-2.34 -0.313,-4.492 1.008,-6.48 1.332,-2.031 2.82,-3.172 4.5,-3.52 1.992,-0.66 3.82,-0.511 5.5,0.508 21.332,12.66 43.679,25.82 67,39.492 -19.649,-12.652 -35,-22.652 -46.02,-30 -19.648,-11.679 -26.84,-19.652 -21.48,-23.98 1.011,-1.68 2.5,-2.852 4.492,-3.52 1.988,-0.351 3.828,0 5.508,1.02 69.64,43.98 144.839,90.469 225.5,139.488 80.671,48.672 143.48,84.84 188.48,108.481 -33.98,-22.661 -80,-51.489 -137.969,-86.489 C 558.09,534.879 504.41,502.852 454.77,473.52 c -38.68,-23.321 -70.161,-42.309 -94.5,-57 -12.649,-7.649 -22.18,-13.321 -28.508,-16.989 -11.332,-6.011 -15.313,-11.679 -11.992,-16.992 1.32,-1.68 3,-2.848 5,-3.519 1.992,-1.321 8,0.511 18,5.511 -21.321,-13.672 -28.508,-21.48 -21.52,-23.511 1.371,-1.641 3.012,-2.821 5,-3.481 0.66,-0.348 1.84,-0.348 3.52,0 -5.36,-5 -8.52,-8.828 -9.5,-11.519 -0.661,-2.661 -0.348,-5.161 0.98,-7.5 1.371,-2 3.16,-3.321 5.512,-3.989 1.328,-1.011 4.84,-0.66 10.508,1.02 -14.34,-9.031 -28.168,-17.5 -41.489,-25.512 -3.359,-2.66 -4.179,-6.019 -2.5,-10 1.328,-1.988 3.168,-3.359 5.469,-4.019 0.66,-1.641 7.191,-0.161 19.531,4.531 l -0.511,-0.512 c -3.36,-2.66 -4.18,-5.859 -2.5,-9.488 1.332,-2.031 2.82,-3.172 4.5,-3.52 -4.34,-5.66 12.339,3.321 50,26.989 -34.34,-23.321 -46.489,-35.309 -36.489,-35.969 0.981,-1.68 2.5,-2.852 4.489,-3.52 l -14.489,-8.511 c -3.672,-2.309 -4.531,-5.469 -2.5,-9.5 2.66,-3.981 5.981,-5 10,-3 l 22.969,13.511 c -2.969,-10 -3.629,-15 -1.988,-15 1.008,-1.332 1.988,-2.34 3.008,-3.011 l -13.008,-17.5 c -1.641,-3.321 -1.492,-6.481 0.508,-9.489 1.32,-1.011 2.851,-1.679 4.492,-1.992 -20.981,-16.988 -28.321,-26.519 -21.992,-28.519 1.32,-1.641 2.851,-2.809 4.492,-3.469 -0.672,-3.012 8.008,0.969 26.008,11.988 -18.36,-14.687 -24.329,-22.66 -18,-24.019 2.339,-3.641 5.66,-4.5 10,-2.5 l 33.98,19.531 c -2.66,-2.352 -5.16,-4.34 -7.5,-6.02 -3.98,-3.32 -7.148,-6.172 -9.488,-8.511 -5.313,-2.969 -6.992,-7 -5,-12 1.008,-1.989 2.648,-3.321 5,-3.981 2.34,-0.66 6.519,0.313 12.5,3.012 -1.641,-1.371 -3.172,-2.5 -4.492,-3.52 -10.36,-6.332 -13.989,-11.992 -11.02,-16.992 1.371,-1.68 3.012,-2.848 5,-3.519 0.66,-3 12.031,2.351 34.02,16.019 -14.02,-9.687 -27.18,-18.668 -39.489,-26.988 -3.672,-2.699 -4.531,-6.02 -2.5,-10 1.641,-2.031 3.828,-3.012 6.489,-3.012 -18.989,-14.34 -25.36,-23.0077 -18.989,-26.0195 0.981,-1.9882 2.5,-3.1601 4.489,-3.4687 -0.348,-2.0313 5.671,0.3086 18.011,6.9883 12.309,6.6409 45,25.6599 97.969,56.9919 -29.648,-19.332 -57.301,-36.992 -82.969,-53.0115 -3.359,-2.6484 -4.179,-5.9687 -2.5,-10 0.981,-1.6406 2.5,-2.6484 4.489,-3 0.98,-0.6679 2.82,-0.3203 5.511,1.0118 l 0.469,-0.5118 c 0,0.3594 0.66,0.8594 2.031,1.5313 0.981,0.6601 2.309,1.3281 3.989,1.9883 -13.68,-11.3282 -18.008,-18.3594 -13.008,-21.0196 1.008,-1.9882 2.5,-3.1601 4.488,-3.4687 -0.309,-2.0313 5.199,0.1484 16.52,6.4805 -13.36,-11.3321 -17.34,-18.1602 -11.989,-20.5118 0.981,-1.9882 2.5,-3.1601 4.489,-3.4687 0.32,-1.6797 5.511,0 15.511,5 10,4.6484 35.16,18.8281 75.469,42.5 -17.66,-11.3711 -37.148,-23.5195 -58.48,-36.5313 -0.661,-0.3086 -1.52,-0.8203 -2.5,-1.4804 -0.661,-0.3477 -1.168,-0.6602 -1.52,-1.0196 -3.629,-2.3398 -4.648,-5.6601 -2.969,-10 1.328,-1.6406 2.809,-2.8086 4.489,-3.4687 2,-0.3516 3.992,0 5.98,0.9687 11.371,6.6797 23.359,13.8321 36.02,21.5313 -21.68,-16.3711 -28.829,-25.3516 -21.489,-27.0313 0.981,-2 2.5,-3.1679 4.489,-3.4804 2,-0.6602 3.832,-0.3477 5.511,0.9804 7.969,5 16.129,10.1914 24.489,15.5 -33,-23 -44.68,-35 -35,-35.9687 0.98,-1.6797 2.5,-2.6992 4.5,-3.0117 -5.668,-5.66019 11.832,3.6718 52.5,28.0117 8.98,5.3086 19.179,11.1289 30.5,17.5 -6.989,-4.6914 -13.36,-8.8711 -19.02,-12.5 -11.641,-7.6992 -21.129,-14.0313 -28.48,-19.0313 -13,-7.3398 -17.5,-13.3203 -13.508,-17.99997 1.328,-1.64062 3.008,-2.82031 5,-3.48047 0.347,0 0.66,0 1.008,0 0.671,-1.01953 9.14,3.01172 25.511,11.99224 16.641,8.9882 51.989,29.8476 105.981,62.5 3.668,2.6601 4.488,6.0195 2.5,10 -0.981,1.3281 -2.153,2.3476 -3.481,3.0078 33.989,23.6719 46.328,36.4809 36.989,38.4809 -1.321,1.679 -2.848,2.851 -4.489,3.511 6.989,6.68 -14.691,-4.652 -65,-33.98 17.66,11.64 33.989,22.648 48.989,32.969 3.32,2.339 3.98,5.5 1.992,9.531 -0.981,1.988 -2.66,3.32 -5,3.98 -1.332,0.668 -4.34,0.348 -8.992,-1.011 3.992,2.691 7.66,5 10.98,7.031 16.371,9.328 22.031,16.129 17.031,20.469 -1.011,1.679 -2.5,2.691 -4.531,3 24.02,19.339 32.191,29.691 24.531,31.019 -1.371,1.641 -2.851,2.66 -4.531,3.012 3.359,4.328 -10,-2.699 -40,-21.02 -30.98,-18.672 -70.98,-42.5 -120,-71.48 31.371,20 58.672,37.301 82.031,51.988 16.328,10.313 29.649,18.672 40,25 17.309,9.652 23.321,16.481 17.969,20.512 -1.328,1.64 -2.809,2.808 -4.488,3.469 -1.992,0.359 -3.832,0 -5.512,-0.969 -31.641,-18.36 -65.309,-37.852 -100.98,-58.52 28.992,17.66 53.992,33.008 75,46.02 18.992,11.64 34.339,21.129 45.98,28.469 5.66,3.359 10,6.179 13.012,8.519 6.328,2.66 8.668,6.992 6.988,13.012 -1.328,1.64 -2.969,2.808 -5,3.469 -1.988,1.332 -10.82,-1.829 -26.48,-9.489 6.679,6.328 8.32,10.668 5,13.008 -1.02,1.641 -2.5,2.813 -4.5,3.481 0.32,1.679 -5.348,-0.668 -16.989,-7 -11.371,-6.321 -42.34,-24.329 -93.011,-53.981 3.32,1.992 6.492,3.832 9.5,5.512 42.652,26.328 68.511,42.648 77.5,48.98 8.671,6.68 11.011,11.168 6.992,13.52 -0.981,1.988 -2.5,3.16 -4.492,3.469 -0.36,0.359 -0.821,0.511 -1.489,0.511 41.989,25.348 68.989,40.821 80.981,46.489 1.328,0.351 2.5,0.66 3.508,1.011 3.679,2.66 4.5,6.02 2.5,10 -1.008,1.989 -2.5,3.168 -4.489,3.52 0.981,2.301 -6.832,-0.86 -23.511,-9.531 11.992,8.671 16.171,15.191 12.5,19.531 -1.02,1.988 -2.661,3.32 -5,3.98 -1.68,0.668 -4.848,0 -9.5,-1.992 7.351,5.66 14.14,10.82 20.511,15.512 2.969,2.648 3.629,5.82 1.989,9.488 -1.008,1.641 -2.5,2.813 -4.489,3.481 -0.351,0.66 -2.34,0.191 -6.011,-1.489 v 0.508 c 0,0 -0.161,-0.16 -0.508,-0.508 -4.653,-1.992 -20.981,-11.011 -48.992,-26.992 15,10 30,20.16 45,30.512 3.32,2.648 4.14,5.82 2.5,9.488 -1.321,1.992 -2.848,3.16 -4.489,3.481 -1.011,0.66 -3.011,0.351 -6.011,-0.981 -3.989,-1.328 -23.52,-12.34 -58.52,-33.008 0.66,0.348 1.371,0.821 2.031,1.489 43.989,27.339 60,40.859 47.969,40.5 -1.328,2 -2.969,3.359 -5,4.031 -2.301,1.64 -10,-1.172 -22.969,-8.52 11.641,8.008 22.809,15.348 33.481,21.989 3.359,2.66 4.019,6.019 1.988,10 -1.328,2 -3.32,3.171 -5.98,3.519 19.652,14.34 26.332,23.16 20,26.481 -1.321,2 -3.36,3.359 -6.008,4.031 -0.672,0.308 -1.332,0.469 -1.992,0.469 42.339,26.011 57.652,39.332 46.011,40 -1.371,1.679 -3.011,2.851 -5,3.511 -1.011,1.989 -9.691,-1.679 -26.011,-11.011 -16.68,-9.649 -54.5,-32.821 -113.52,-69.5 -56.328,-35.661 -111.988,-69.84 -166.988,-102.5 61.328,38.679 122.648,76.679 184.019,114.031 32.309,20 58.989,36.48 80,49.488 10,6.332 17.969,11.332 23.989,15 10,5 13.511,10.313 10.5,15.981 -1.321,2.031 -3.161,3.359 -5.5,4.019 -2,0.313 -5.36,-0.16 -10,-1.519 l 40.5,25.5 c 3.32,2.66 3.992,6.019 2,10 -2.661,3.679 -6.02,4.5 -10,2.5 -77.348,-48.981 -159.5,-99.489 -246.489,-151.481 11.989,7.34 24.141,14.84 36.489,22.5 61.992,38.981 110.82,69.652 146.48,91.992 60.66,36.989 83.359,54.848 68.012,53.52 -0.672,0.969 -1.641,1.828 -3.012,2.5 39.34,23.98 59.18,38.98 59.531,45 0.668,2.648 0.309,5 -1.011,6.988 -1.02,1.992 -2.661,3.32 -5,3.981 -2.661,1.019 -9.18,-0.969 -19.5,-5.969 17.351,11.328 23.011,17.969 17,20 -1.02,1.988 -2.5,3.16 -4.5,3.469 -0.661,0.359 -1.321,0.511 -1.989,0.511 23.629,17.348 31.641,26.84 23.989,28.52 -1.329,2.301 -3.168,3.828 -5.508,4.488 -0.981,0.981 -5.313,0.313 -13.012,-1.988 11.68,6.988 22.852,13.629 33.52,20 3.32,2.648 4.179,5.969 2.5,10 -1.02,1.64 -2.5,2.808 -4.5,3.469 -0.661,0.671 -2.5,0.359 -5.5,-0.969 -0.36,0 -0.821,-0.199 -1.489,-0.512 -5,-1.988 -22.691,-11.68 -53.011,-29.019 -30.661,-17.309 -84.489,-48.481 -161.52,-93.481 4.34,3.012 9.02,5.981 14.02,8.981 46.64,27.66 87.351,51.679 122,72 31.32,18 56.32,32.5 75,43.511 9.332,5.668 16.48,10 21.48,13.008 9.02,4.34 12.191,9.34 9.531,15 -1.011,1.641 -2.5,2.813 -4.531,3.481 23.672,18.671 31.68,28.671 24.02,30 -0.661,1.679 -1.829,2.851 -3.508,3.511 9.328,8.008 14.687,13.989 16.008,18.008 0.671,3.32 0.32,5.82 -1.008,7.5 -0.672,1.332 -1.641,2.34 -3.012,3.012 0.66,0.66 1.52,1.129 2.5,1.48 l 0.512,0.508 -3.481,6.481 -2.031,-7.5 2.031,9.031 c 1.641,-2.031 3.321,-3.012 5,-3.012 2.66,0.313 6.328,1.992 10.981,5 l 36.519,20.981 c 3.629,2.691 4.489,6.011 2.5,10 -2.34,3.671 -5.511,4.531 -9.531,2.5 -5.309,-2.661 -10.82,-5.668 -16.48,-8.989 6.679,9.34 9.332,14.489 8,15.508 38.32,34.652 52.152,50.981 41.492,48.981 -0.981,2 -2.5,3.171 -4.492,3.519 5.66,5.66 12.652,12.34 21.011,20 3.321,1.641 4.141,5.16 2.5,10.512 -1.011,1.64 -2.5,2.648 -4.531,2.969 -0.66,2.031 -5.66,0.191 -15,-5.469 l 5,8.98 c 1.371,2.348 1.371,4.649 0,6.989 -0.98,1.332 -2.148,2.351 -3.48,3.011 23.011,20.348 30.82,30.668 23.48,31.02 -0.98,1.988 -2.5,3.16 -4.488,3.469 -1.992,0.671 -3.832,0.511 -5.512,-0.5 -2.301,-1.641 -4.648,-3.168 -6.988,-4.5 1.679,2.66 1.679,5 0,7 -0.981,2.03 -2.66,3.16 -5,3.51 -1.992,3.01 -13.321,-2.651 -33.992,-16.991 -0.348,0.313 -0.661,0.82 -1.008,1.481 -0.981,1.679 -2.5,2.859 -4.492,3.519 3.671,5.313 -12.86,-2.66 -49.5,-24.019 13.32,11.011 17.5,17.339 12.5,19.019 -1.008,1.641 -2.5,2.813 -4.489,3.481 -1.011,1.011 -3.871,0.191 -8.511,-2.5 2.652,3 5.82,6.171 9.492,9.531 6.008,4.649 8.508,8.469 7.5,11.479 6.328,5 13.008,10 20,15 l 0.508,-1.01 -2,-7 c 0.32,-1.99 5.511,0.36 15.511,7 3.629,2.03 8.321,4.84 13.989,8.51 -15.668,-14.65 -20.668,-22.5 -15,-23.51 1.011,-2 2.5,-3.17 4.492,-3.48 0.66,-0.35 1.328,-0.51 1.988,-0.51 -0.309,-2.339 13.359,5.35 41.02,23.01 13.671,8.32 23.671,14.34 30,18.01 1.011,0 1.832,0.31 2.5,0.97 3.671,2.35 4.64,5.67 3,10 -1.321,1.68 -2.848,2.66 -4.489,3.01 -0.66,2.35 -6.679,0 -18.011,-6.99 6.332,5.31 12.351,10.51 18.011,15.51 2.969,2.65 3.629,5.66 1.989,8.98 -1.321,1.99 -3,3.17 -5,3.52 2,3.98 -9.489,-1.37 -34.489,-16.02 10.981,8.01 18.168,13.67 21.489,16.99 0,0 0.152,0 0.5,0 4.339,4.03 5.16,7.35 2.5,10 -1.321,1.68 -3,2.66 -5,3.01 -1.68,0.67 -3.508,0.51 -5.5,-0.51 -18.68,-11.64 -39.18,-24.33 -61.489,-38 28.989,20 56.129,38.36 81.489,55 3.32,2.69 3.98,6.01 1.992,10 -1.641,2.34 -3.992,3.36 -6.992,3 21.32,15.36 28.511,24.5 21.48,27.5" /><path
         id="path18"
         style="fill:#54a3d9;fill-opacity:1;fill-rule:evenodd;stroke:none"
         d="m 481.762,1518.05 c -1.332,1.64 -2.813,2.81 -4.492,3.47 -2,0.36 -3.829,0.16 -5.508,-0.5 l -89.492,-51.49 c 7.339,9.34 9.492,15.16 6.48,17.5 -1.328,1.68 -2.809,2.66 -4.488,3.01 -1.992,0.66 -3.832,0.51 -5.512,-0.51 -1.988,-1.01 -3.828,-1.99 -5.469,-3.01 -1.371,1.68 -3.011,2.86 -5,3.52 4.34,5.98 -13.871,-3.67 -54.531,-29.02 20,15 26.68,23.36 20,25 -0.98,1.68 -2.66,2.85 -5,3.51 2.34,4.65 -11.641,-2.65 -41.988,-21.99 -0.981,-0.66 -1.641,-1.17 -1.992,-1.52 l 3.98,-5.98 -0.469,-1.02 c -2.031,-1.99 -4.179,-3.82 -6.519,-5.5 -11.992,-9.34 -22.5,-17.82 -31.492,-25.47 -15,-10.35 -20.149,-17.7 -15.5,-22.03 1.011,-1.64 2.5,-2.82 4.492,-3.48 0.66,0 1.328,0 1.988,0 -1.641,-4.02 21.52,9.14 69.531,39.49 4.34,2.35 8.629,5 12.969,8.01 v -0.51 l 6.52,3.52 -6.52,-3.52 -1.48,-6.99 c -3.321,-4.02 8.82,2.15 36.48,18.48 -7.301,-9.65 -9.488,-15.47 -6.48,-17.5 2.652,-3.64 6.011,-4.5 10,-2.5 l 28.98,16.52 c -18.629,-14.02 -25,-22.34 -18.98,-25 1.32,-1.68 2.851,-2.66 4.492,-3.01 1.988,-0.66 3.828,-0.51 5.508,0.51 l 44.492,25.51 c -5.313,-3.36 -10.512,-6.68 -15.512,-10 -11.328,-7.7 -20.469,-13.87 -27.5,-18.52 -11.988,-6.99 -16.129,-12.85 -12.5,-17.5 1.371,-1.68 3.012,-2.85 5,-3.51 -3.32,-5 13.359,2.5 50,22.5 -12.301,-7.66 -24.648,-15.16 -36.988,-22.5 -3.321,-2.66 -4.141,-5.98 -2.5,-10 1.328,-1.64 3.008,-2.82 5,-3.48 0.66,-0.35 1.328,-0.51 1.988,-0.51 1.68,-1.01 11.52,3.17 29.531,12.5 17.969,8.99 54.34,30 108.989,63.01 73,43.98 114.839,69.49 125.5,76.48 3.32,2.66 3.992,6.02 2,10 -2.661,3.68 -6.02,4.5 -10,2.5 -4.34,-2.65 -8.829,-5.5 -13.52,-8.47 15,12.97 19.691,20.47 14.02,22.5 -1.008,1.99 -2.5,3.16 -4.489,3.47 -2.031,0.67 -3.871,0.36 -5.511,-0.97 -34.68,-21.37 -72.5,-44.34 -113.508,-69.03 22.34,15 42.187,28.17 59.488,39.5 11.371,7.69 20.352,13.86 27.031,18.51 11.989,6.68 16.129,12.35 12.5,16.99 -2.691,3.68 -6.011,4.5 -10,2.5 L 462.77,1493.05 c 18.679,13.98 25,22.3 18.992,25" /><path
         id="path20"
         style="fill:#54a3d9;fill-opacity:1;fill-rule:evenodd;stroke:none"
         d="m 349.77,1388.52 c -5.668,-3.64 -9.848,-6.14 -12.5,-7.5 -0.668,0 -1.18,-0.16 -1.489,-0.47 -3.672,-2.7 -4.531,-6.02 -2.5,-10 0.981,-1.68 2.5,-2.85 4.489,-3.52 0.671,0 1.332,-0.15 2,-0.51 0.66,-0.31 6.48,2.86 17.5,9.5 3.671,2.69 4.492,6.01 2.5,10 -2.661,3.67 -6.02,4.53 -10,2.5" /><path
         id="path22"
         style="fill:#8cc53f;fill-opacity:1;fill-rule:evenodd;stroke:none"
         d="m 664.262,264.02 c -7.352,-3.981 -16.172,-8.981 -26.492,-15 6.332,6.679 7.82,11.019 4.5,13.011 -1.02,1.68 -2.5,2.848 -4.5,3.52 0.32,1.64 -5.348,-0.672 -16.989,-7.031 -11.371,-6.329 -42.191,-24.34 -92.5,-53.989 2.969,1.989 5.981,3.828 8.989,5.508 43,26.332 68.82,42.66 77.5,48.981 8.98,6.679 11.48,11.332 7.5,14.031 -1.329,1.64 -2.86,2.808 -4.5,3.469 -0.661,0 -1.168,0 -1.52,0 -6.641,-6.641 -17.148,-11.641 -31.48,-15 -10,-5.661 -24.34,-13.821 -43.008,-24.489 16.328,11.989 21.679,18.989 16.008,21.02 -1.321,1.988 -3.161,3.32 -5.5,3.98 -2.348,2.66 -18.52,-5 -48.52,-23.011 3.672,2.66 6.68,4.851 9.02,6.531 5.671,2.648 7.5,6.828 5.511,12.5 -1.011,1.64 -2.691,2.808 -5,3.469 0.981,5.671 -24.019,-8.321 -75,-41.989 -3.011,-1.679 -6.011,-3.511 -9.019,-5.511 9.019,7.66 17.5,14.691 25.508,21.019 3,3.012 3.511,6.332 1.48,10 -2.66,3.012 -5.82,3.672 -9.488,1.992 l -35.512,-20 c 21.02,16.328 28.16,25 21.52,26.02 -1.008,1.988 -2.5,3.16 -4.489,3.469 2.66,4.339 -10,-1.989 -38.011,-18.981 12.351,10.66 16.332,17.5 12,20.512 -0.36,0.308 -0.668,0.66 -1.02,0.969 -0.309,0 -0.66,0 -0.98,0 -9.02,-4.329 -14.84,-5.5 -17.5,-3.469 -4.02,-2.352 -6.68,-4.031 -8,-5 -10.668,-4.34 -17.149,-5 -19.5,-2.031 l -13,-17.5 c -2,-3.321 -1.84,-6.329 0.5,-8.989 0.98,-1.332 2.5,-2.152 4.5,-2.5 -21.329,-16.992 -28.68,-26.48 -22,-28.511 0.98,-1.641 2.5,-2.821 4.5,-3.481 -1.02,-3.008 7.652,1.172 26.011,12.5 -18.672,-15 -24.84,-23.16 -18.511,-24.488 2.652,-3.672 6.011,-4.531 10,-2.5 l 33.98,19.488 c -2.66,-1.988 -5,-4.019 -6.988,-6.019 -4.34,-3.321 -7.66,-5.969 -10,-8 -5,-3.321 -6.641,-7.5 -5,-12.5 1.328,-2 3.16,-3.321 5.508,-3.989 1.992,-0.66 6.011,0.348 11.992,3.008 -1.641,-1.328 -3.172,-2.5 -4.492,-3.519 -10,-6.321 -13.52,-11.829 -10.508,-16.481 1.008,-1.988 2.5,-3.359 4.488,-4.019 0.66,-2.661 12.191,2.691 34.531,16.011 -14.332,-9.332 -27.691,-18.16 -40,-26.48 -3.359,-3.012 -4.019,-6.371 -2.031,-10 1.371,-2.352 3.359,-3.52 6.02,-3.52 -18.68,-14.332 -25,-23.0115 -18.989,-26.0115 1.328,-1.6406 2.809,-2.8203 4.489,-3.4804 -0.348,-1.9883 5.671,0.3125 18.011,6.9922 12.309,6.6797 45.16,25.6677 98.481,56.9887 -30,-19.329 -57.813,-36.989 -83.481,-53.0005 -3.359,-2.6601 -4.019,-5.8203 -2.031,-9.5 1.02,-1.9882 2.5,-3.1601 4.531,-3.4687 0.668,-0.6719 2.5,-0.3516 5.469,0.9687 0,0 0.66,0.3594 2.031,1.0196 1.328,0.6601 2.66,1.4804 3.989,2.5 -13.321,-11.6797 -17.661,-18.8282 -13.008,-21.5196 1.328,-2 2.847,-3.1679 4.488,-3.4804 0,-1.6797 5.512,0.5117 16.52,6.4804 -13.36,-11.3203 -17.34,-18.1601 -11.989,-20.5 0.981,-1.6406 2.5,-2.8203 4.489,-3.4804 0.32,-1.6797 5.511,0 15.511,5 10,4.6523 35.16,18.832 75.469,42.5 -17.66,-11.3282 -36.988,-23.5196 -57.969,-36.5196 -1.011,-0.3203 -2.031,-0.8203 -3.011,-1.4882 -0.348,-0.3516 -0.86,-0.6602 -1.52,-1.0118 -3.629,-2.3086 -4.488,-5.4687 -2.5,-9.5 1.02,-1.9882 2.5,-3.1601 4.531,-3.4687 1.989,-0.6719 3.828,-0.5117 5.469,0.4687 11.371,7.0313 23.52,14.1797 36.52,21.5196 -21.989,-16.3282 -29.329,-25.3477 -21.989,-26.9883 0.981,-2.0313 2.5,-3.1719 4.489,-3.5195 2,-0.3516 3.992,0 5.98,1.0195 8.012,5 16.02,10.1484 24.02,15.4687 -33,-22.9687 -44.68,-34.8086 -35,-35.4687 1.332,-2.0313 2.82,-3.1719 4.5,-3.5195 -5.668,-5.66021 11.832,3.6679 52.5,28.0078 9.332,5.3125 19.492,11.1718 30.5,17.5 -6.989,-4.3399 -13.161,-8.5196 -18.508,-12.5 -11.992,-7.6602 -21.641,-14.0196 -28.992,-19.0196 -12.649,-7.3086 -16.989,-13.1679 -13,-17.49997 1.011,-2 2.5,-3.16797 4.492,-3.48047 0.347,-0.34765 0.859,-0.50781 1.519,-0.50781 0.309,-1.01172 8.828,3.00781 25.469,11.98825 16.371,9.0313 51.52,29.8516 105.512,62.5 3.668,2.6602 4.488,6.0196 2.5,10 -0.672,1.3321 -1.641,2.3516 -3.012,3.0118 33.672,23.6677 45.859,36.4887 36.52,38.5197 -1.008,1.988 -2.5,3.16 -4.489,3.469 6.989,6.679 -14.531,-4.641 -64.531,-33.981 17.34,11.992 33.52,23.012 48.52,33.012 3.32,2.648 4.179,5.82 2.5,9.488 -1.329,1.992 -3.168,3.32 -5.508,3.981 -0.981,0.671 -3.832,0.359 -8.481,-0.969 3.989,2.648 7.5,5 10.469,6.988 16.371,9.652 22.031,16.481 17.031,20.512 -1.011,1.64 -2.34,2.808 -4.019,3.469 23.668,19.031 31.679,29.179 24.019,30.511 -1.011,1.68 -2.5,2.848 -4.531,3.52 3.672,3.98 -9.648,-3.172 -40,-21.531 -30.98,-18.668 -70.82,-42.5 -119.488,-71.481 31.328,20.313 58.508,37.66 81.519,51.992 16.328,10.348 29.649,18.828 40,25.508 17.309,9.34 23.321,15.981 17.969,20 -0.98,1.641 -2.5,2.813 -4.488,3.481 -1.992,0.66 -3.832,0.5 -5.512,-0.469 -31.641,-18.672 -65.309,-38.36 -100.98,-59.031 28.992,17.66 53.992,33.011 75,46.019 18.992,11.641 34.339,21.172 45.98,28.481 6.68,4.332 12.34,8 17.031,11.011 17.309,15.668 16.84,22.149 -1.519,19.489" /><path
         id="path24"
         style="fill:#54a3db;fill-opacity:1;fill-rule:nonzero;stroke:none"
         d="m 1324.14,737.5 c 0,-24.922 -9.45,-44.141 -28.28,-57.66 -18.75,-13.43 -45.08,-20.149 -78.91,-20.149 -32.81,0 -58.12,5.387 -75.93,16.25 -17.82,10.821 -29.46,27.688 -34.85,50.618 l 38.91,7.5 c 3.63,-14.18 11.29,-24.528 22.97,-31.09 11.75,-6.559 28.04,-9.848 48.9,-9.848 22.39,0 38.75,3.359 49.07,10.16 10.31,6.879 15.46,17.11 15.46,30.778 0,10.39 -3.59,18.832 -10.78,25.32 -7.18,6.562 -18.75,11.949 -34.68,16.242 l -31.41,8.289 c -25.23,6.559 -43.2,12.969 -53.91,19.211 -10.62,6.258 -18.98,13.828 -25,22.82 -6.05,8.938 -9.06,19.918 -9.06,32.969 0,24.059 8.59,42.379 25.78,55 17.19,12.57 42.23,18.899 75.16,18.899 29.06,0 52.19,-5.149 69.37,-15.469 17.19,-10.231 28.05,-26.641 32.66,-49.219 l -39.53,-4.84 c -2.5,11.641 -9.14,20.629 -19.85,26.879 -10.62,6.32 -24.84,9.531 -42.65,9.531 -19.92,0 -34.61,-3.05 -44.06,-9.07 -9.38,-6.051 -14.07,-15.152 -14.07,-27.34 0,-7.5 1.92,-13.711 5.78,-18.59 3.95,-4.921 9.73,-9.07 17.35,-12.5 7.69,-3.363 23.83,-8.05 48.44,-14.07 23.2,-5.851 39.92,-11.242 50.15,-16.242 10.31,-5 18.44,-10.551 24.38,-16.57 5.93,-5.93 10.5,-12.887 13.75,-20.778 3.2,-7.929 4.84,-16.953 4.84,-27.031 z m 153.44,-70.941 c -14.49,-3.938 -29.34,-5.938 -44.53,-5.938 -35.12,0 -52.66,19.93 -52.66,59.848 v 176.25 h -30.62 v 32.031 h 32.34 l 12.97,59.059 h 29.22 V 928.75 h 48.9 v -32.031 h -48.9 V 730 c 0,-12.73 2.07,-21.68 6.25,-26.879 4.14,-5.109 11.33,-7.652 21.56,-7.652 5.82,0 14.3,1.133 25.47,3.441 z" /><path
         id="path26"
         style="fill:#54a3db;fill-opacity:1;fill-rule:nonzero;stroke:none"
         d="m 1582.03,659.691 c -26.56,0 -46.52,6.95 -59.84,20.93 -13.36,14.07 -20,33.289 -20,57.66 0,27.27 8.94,48.278 26.87,62.969 18.01,14.691 47.07,22.5 87.19,23.441 l 59.22,0.93 V 840 c 0,21.559 -4.61,36.949 -13.75,46.25 -9.06,9.262 -23.36,13.91 -42.81,13.91 -19.69,0 -34.03,-3.359 -42.97,-10 -8.99,-6.68 -14.34,-17.351 -16.1,-32.039 l -45.93,4.219 c 7.5,47.5 42.81,71.25 105.93,71.25 33.21,0 58.21,-7.61 75,-22.809 16.76,-15.23 25.16,-37.261 25.16,-66.09 v -113.75 c 0,-13.05 1.64,-22.89 5,-29.531 3.44,-6.57 10,-9.851 19.69,-9.851 4.14,0 8.94,0.55 14.37,1.722 v -27.34 c -11.17,-2.582 -22.46,-3.91 -33.9,-3.91 -16.37,0 -28.25,4.258 -35.63,12.809 -7.42,8.519 -11.56,21.922 -12.5,40.16 h -1.56 c -11.17,-20.121 -24.18,-34.379 -39.06,-42.809 -14.93,-8.32 -33.05,-12.5 -54.38,-12.5 z m 10,32.969 c 16.13,0 30.47,3.629 42.97,10.93 12.5,7.269 22.34,17.351 29.53,30.16 7.27,12.809 10.94,25.941 10.94,39.371 v 21.719 l -47.97,-0.93 c -20.74,-0.32 -36.48,-2.461 -47.19,-6.41 -10.62,-3.871 -18.83,-9.84 -24.53,-17.969 -5.62,-8.121 -8.44,-18.832 -8.44,-32.031 0,-14.301 3.83,-25.309 11.57,-33.121 7.69,-7.82 18.75,-11.719 33.12,-11.719 z" /><path
         id="path28"
         style="fill:#54a3db;fill-opacity:1;fill-rule:nonzero;stroke:none"
         d="m 1793.95,664.531 v 202.66 c 0,18.508 -0.47,39.059 -1.41,61.559 h 41.41 c 1.32,-30 2.03,-48.051 2.03,-54.059 h 0.93 c 6.96,22.688 15,38.161 24.07,46.399 9.14,8.32 22.03,12.5 38.59,12.5 5.94,0 11.91,-0.86 17.97,-2.5 v -40.309 c -5.94,1.641 -13.75,2.5 -23.44,2.5 -18.24,0 -32.19,-7.89 -41.87,-23.59 -9.61,-15.632 -14.38,-38.132 -14.38,-67.5 v -137.66 z" /><path
         id="path30"
         style="fill:#54a3db;fill-opacity:1;fill-rule:nonzero;stroke:none"
         d="m 2061.56,666.559 c -14.49,-3.938 -29.33,-5.938 -44.53,-5.938 -35.12,0 -52.65,19.93 -52.65,59.848 v 176.25 h -30.63 v 32.031 h 32.34 l 12.97,59.059 h 29.22 V 928.75 h 48.91 v -32.031 h -48.91 V 730 c 0,-12.73 2.07,-21.68 6.25,-26.879 4.14,-5.109 11.33,-7.652 21.56,-7.652 5.82,0 14.3,1.133 25.47,3.441 z" /><path
         id="path32"
         style="fill:#54a3db;fill-opacity:1;fill-rule:nonzero;stroke:none"
         d="m 2141.64,928.75 v -167.5 c 0,-17.422 1.64,-30.941 5,-40.629 3.44,-9.601 8.91,-16.519 16.41,-20.781 7.5,-4.18 18.47,-6.25 32.97,-6.25 21.13,0 37.81,7.23 50,21.719 12.26,14.461 18.43,34.57 18.43,60.312 V 928.75 h 43.91 V 720.941 c 0,-30.742 0.47,-49.531 1.41,-56.41 h -41.41 c -0.24,0.821 -0.43,3.008 -0.63,6.559 -0.11,3.64 -0.31,7.738 -0.62,12.351 -0.23,4.68 -0.47,13.438 -0.78,26.25 h -0.78 c -10,-18.242 -21.68,-31.171 -35,-38.75 -13.25,-7.5 -29.69,-11.25 -49.38,-11.25 -28.98,0 -50.15,7.188 -63.59,21.559 -13.44,14.371 -20.16,38.16 -20.16,71.41 v 176.09 z" /><path
         id="path34"
         style="fill:#54a3db;fill-opacity:1;fill-rule:nonzero;stroke:none"
         d="m 2600.27,797.809 c 0,-92.11 -32.42,-138.118 -97.18,-138.118 -40.63,0 -67.97,15.309 -82.04,45.93 h -1.09 c 0.63,-1.359 0.94,-15.23 0.94,-41.562 V 560.781 h -43.91 v 313.91 c 0,27.188 -0.54,45.188 -1.56,54.059 h 42.5 c 0.19,-0.738 0.47,-3.09 0.78,-7.031 0.31,-3.989 0.67,-10.117 1.09,-18.438 0.4,-8.359 0.63,-14.019 0.63,-17.031 h 0.94 c 7.81,16.25 18.12,28.129 30.93,35.629 12.9,7.57 29.85,11.402 50.79,11.402 32.57,0 56.91,-10.902 72.96,-32.66 16.14,-21.793 24.22,-56.051 24.22,-102.812 z m -46.09,-0.93 c 0,36.75 -5,63 -15,78.742 -9.92,15.828 -25.63,23.758 -47.19,23.758 -17.5,0 -31.21,-3.68 -41.09,-10.938 -9.81,-7.312 -17.27,-18.75 -22.35,-34.382 -5.11,-15.539 -7.65,-35.739 -7.65,-60.618 0,-34.691 5.51,-60.281 16.56,-76.722 11.02,-16.367 28.99,-24.528 53.91,-24.528 21.87,0 37.81,7.969 47.81,23.899 10,16.019 15,42.969 15,80.789 z" /><path
         id="path36"
         style="fill:#54a3db;fill-opacity:1;fill-rule:nonzero;stroke:none"
         d="m 2861.33,659.691 c -26.56,0 -46.53,6.95 -59.85,20.93 -13.36,14.07 -20,33.289 -20,57.66 0,27.27 8.95,48.278 26.88,62.969 18.01,14.691 47.07,22.5 87.19,23.441 l 59.22,0.93 V 840 c 0,21.559 -4.61,36.949 -13.75,46.25 -9.07,9.262 -23.36,13.91 -42.82,13.91 -19.68,0 -34.02,-3.359 -42.97,-10 -8.98,-6.68 -14.33,-17.351 -16.09,-32.039 l -45.94,4.219 c 7.5,47.5 42.82,71.25 105.94,71.25 33.2,0 58.2,-7.61 75,-22.809 16.76,-15.23 25.16,-37.261 25.16,-66.09 v -113.75 c 0,-13.05 1.64,-22.89 5,-29.531 3.43,-6.57 10,-9.851 19.68,-9.851 4.14,0 8.95,0.55 14.38,1.722 v -27.34 c -11.17,-2.582 -22.46,-3.91 -33.91,-3.91 -16.36,0 -28.24,4.258 -35.62,12.809 -7.42,8.519 -11.56,21.922 -12.5,40.16 h -1.56 c -11.18,-20.121 -24.18,-34.379 -39.07,-42.809 -14.92,-8.32 -33.04,-12.5 -54.37,-12.5 z m 10,32.969 c 16.13,0 30.47,3.629 42.97,10.93 12.5,7.269 22.34,17.351 29.53,30.16 7.26,12.809 10.94,25.941 10.94,39.371 v 21.719 l -47.97,-0.93 c -20.75,-0.32 -36.49,-2.461 -47.19,-6.41 -10.63,-3.871 -18.83,-9.84 -24.53,-17.969 -5.63,-8.121 -8.44,-18.832 -8.44,-32.031 0,-14.301 3.83,-25.309 11.56,-33.121 7.7,-7.82 18.75,-11.719 33.13,-11.719 z" /><path
         id="path38"
         style="fill:#54a3db;fill-opacity:1;fill-rule:nonzero;stroke:none"
         d="m 3073.24,664.531 v 202.66 c 0,18.508 -0.47,39.059 -1.4,61.559 h 41.4 c 1.33,-30 2.03,-48.051 2.03,-54.059 h 0.94 c 6.95,22.688 15,38.161 24.06,46.399 9.14,8.32 22.03,12.5 38.6,12.5 5.93,0 11.91,-0.86 17.97,-2.5 v -40.309 c -5.94,1.641 -13.75,2.5 -23.44,2.5 -18.24,0 -32.19,-7.89 -41.88,-23.59 -9.61,-15.632 -14.37,-38.132 -14.37,-67.5 v -137.66 z" /><path
         id="path40"
         style="fill:#54a3db;fill-opacity:1;fill-rule:nonzero;stroke:none"
         d="m 3272.73,797.809 c 0,-35.11 5.51,-61.168 16.57,-78.118 11.01,-16.882 27.69,-25.312 50,-25.312 15.62,0 28.67,4.211 39.22,12.652 10.5,8.438 16.95,21.449 19.37,39.059 l 44.53,-2.969 c -3.44,-25.422 -14.3,-45.699 -32.5,-60.781 -18.24,-15.11 -41.37,-22.649 -69.37,-22.649 -37,0 -65.24,11.637 -84.69,35 -19.38,23.321 -29.06,57.379 -29.06,102.188 0,44.371 9.72,78.199 29.22,101.562 19.57,23.438 47.57,35.149 84.06,35.149 26.95,0 49.37,-7.031 67.19,-21.09 17.89,-13.98 29.1,-33.238 33.59,-57.809 l -45.16,-3.441 c -2.3,14.691 -8.08,26.328 -17.34,35 -9.3,8.629 -22.46,12.969 -39.53,12.969 -23.24,0 -40.08,-7.77 -50.47,-23.278 -10.43,-15.429 -15.63,-41.492 -15.63,-78.132 z" /><path
         id="path42"
         style="fill:#54a3db;fill-opacity:1;fill-rule:nonzero;stroke:none"
         d="m 3556.64,659.691 c -26.56,0 -46.52,6.95 -59.84,20.93 -13.36,14.07 -20,33.289 -20,57.66 0,27.27 8.94,48.278 26.87,62.969 18.01,14.691 47.07,22.5 87.19,23.441 l 59.22,0.93 V 840 c 0,21.559 -4.61,36.949 -13.75,46.25 -9.06,9.262 -23.36,13.91 -42.81,13.91 -19.69,0 -34.03,-3.359 -42.97,-10 -8.99,-6.68 -14.34,-17.351 -16.1,-32.039 l -45.93,4.219 c 7.5,47.5 42.81,71.25 105.93,71.25 33.21,0 58.21,-7.61 75,-22.809 16.76,-15.23 25.16,-37.261 25.16,-66.09 v -113.75 c 0,-13.05 1.64,-22.89 5,-29.531 3.44,-6.57 10,-9.851 19.69,-9.851 4.14,0 8.94,0.55 14.37,1.722 v -27.34 c -11.17,-2.582 -22.46,-3.91 -33.9,-3.91 -16.37,0 -28.25,4.258 -35.63,12.809 -7.42,8.519 -11.56,21.922 -12.5,40.16 h -1.56 c -11.17,-20.121 -24.18,-34.379 -39.06,-42.809 -14.93,-8.32 -33.05,-12.5 -54.38,-12.5 z m 10,32.969 c 16.13,0 30.47,3.629 42.97,10.93 12.5,7.269 22.34,17.351 29.53,30.16 7.27,12.809 10.94,25.941 10.94,39.371 v 21.719 l -47.97,-0.93 c -20.74,-0.32 -36.49,-2.461 -47.19,-6.41 -10.62,-3.871 -18.83,-9.84 -24.53,-17.969 -5.62,-8.121 -8.44,-18.832 -8.44,-32.031 0,-14.301 3.83,-25.309 11.57,-33.121 7.69,-7.82 18.75,-11.719 33.12,-11.719 z" /><path
         id="path44"
         style="fill:#54a3db;fill-opacity:1;fill-rule:nonzero;stroke:none"
         d="m 3934.34,707.031 c -8.13,-16.992 -18.91,-29.14 -32.35,-36.41 -13.44,-7.262 -30.11,-10.93 -50,-10.93 -33.36,0 -57.89,11.168 -73.59,33.59 -15.74,22.5 -23.6,56.559 -23.6,102.188 0,92.07 32.39,138.121 97.19,138.121 20,0 36.64,-3.711 50,-11.09 13.44,-7.301 24.22,-18.91 32.35,-34.84 h 0.46 l -0.46,29.531 v 109.689 h 43.9 V 718.91 c 0,-27.5 0.47,-45.629 1.41,-54.379 h -41.88 c -0.54,2.578 -1.09,8.59 -1.72,17.969 -0.54,9.449 -0.78,17.66 -0.78,24.531 z m -133.29,89.848 c 0,-37 4.85,-63.438 14.54,-79.379 9.76,-15.941 25.66,-23.91 47.65,-23.91 24.88,0 42.97,8.601 54.22,25.789 11.25,17.262 16.88,44.101 16.88,80.461 0,35 -5.63,60.629 -16.88,76.879 -11.25,16.25 -29.18,24.371 -53.75,24.371 -22.11,0 -38.09,-8.199 -47.97,-24.531 -9.8,-16.36 -14.69,-42.93 -14.69,-79.68 z" /><path
         id="path46"
         style="fill:#54a3db;fill-opacity:1;fill-rule:nonzero;stroke:none"
         d="m 4079.53,787.34 c 0,-30.309 6.25,-53.711 18.75,-70.149 12.58,-16.371 30.94,-24.531 55,-24.531 19.06,0 34.3,3.789 45.78,11.399 11.45,7.703 19.22,17.39 23.28,29.062 l 38.6,-10.93 c -15.74,-41.679 -51.64,-62.5 -107.66,-62.5 -39.06,0 -68.83,11.598 -89.22,34.84 -20.43,23.321 -30.62,57.891 -30.62,103.75 0,43.629 10.19,77.071 30.62,100.309 20.39,23.32 49.57,35 87.5,35 77.7,0 116.56,-46.828 116.56,-140.469 v -5.781 z m 143.13,33.75 c -2.5,27.82 -9.65,48.051 -21.41,60.789 -11.68,12.812 -28.44,19.211 -50.31,19.211 -21.37,0 -38.28,-7.141 -50.78,-21.399 -12.43,-14.179 -19.14,-33.711 -20.16,-58.601 z" /></g></g></svg>